<?xml version="1.0" encoding="UTF-8" standalone="no"?>
<!-- Created with Inkscape (http://www.inkscape.org/) -->

<svg
   width="79.442558mm"
   height="47.484634mm"
   viewBox="0 0 79.442558 47.484634"
   version="1.1"
   id="svg8882"
   sodipodi:docname="1-t.svg"
   inkscape:version="1.2 (dc2aedaf03, 2022-05-15)"
   xmlns:inkscape="http://www.inkscape.org/namespaces/inkscape"
   xmlns:sodipodi="http://sodipodi.sourceforge.net/DTD/sodipodi-0.dtd"
   xmlns="http://www.w3.org/2000/svg"
   xmlns:svg="http://www.w3.org/2000/svg"
   xmlns:ns9="http://www.iki.fi/pav/software/textext/">
  <sodipodi:namedview
     id="namedview8884"
     pagecolor="#252525"
     bordercolor="#666666"
     borderopacity="1.0"
     inkscape:showpageshadow="2"
     inkscape:pageopacity="0"
     inkscape:pagecheckerboard="0"
     inkscape:deskcolor="#d1d1d1"
     inkscape:document-units="mm"
     showgrid="false"
     inkscape:zoom="4"
     inkscape:cx="134.375"
     inkscape:cy="58.75"
     inkscape:window-width="1920"
     inkscape:window-height="1017"
     inkscape:window-x="-8"
     inkscape:window-y="-8"
     inkscape:window-maximized="1"
     inkscape:current-layer="layer1" />
  <defs
     id="defs8879" />
  <g
     inkscape:label="Layer 1"
     inkscape:groupmode="layer"
     id="layer1"
     transform="translate(-59.723326,-94.173)">
    <g
       id="path9003">
      <path
         style="color:#000000;fill:#ffffff;stroke-miterlimit:0;-inkscape-stroke:none"
         d="m 59.722656,109.40039 v 1 h 75.388674 v -1 z"
         id="path2745" />
      <g
         id="g2735">
        <g
           id="path2737">
          <path
             style="color:#000000;fill:#ffffff;fill-rule:evenodd;stroke-width:0.5pt;-inkscape-stroke:none"
             d="m 138.11179,109.90071 c -1.5,0.5 -3.5,1.5 -4.5,2.5 0,0 0,-2 1,-2.5 -1,-0.5 -1,-2.5 -1,-2.5 1,1 3,2 4.5,2.5 z"
             id="path2741" />
          <path
             style="color:#000000;fill:#ffffff;fill-rule:evenodd;-inkscape-stroke:none"
             d="m 133.2793,106.5957 v 0.80469 c 0,0 -0.001,0.53143 0.13281,1.13477 0.10674,0.48031 0.35218,0.99217 0.75586,1.36718 -0.40297,0.37502 -0.64922,0.88338 -0.75586,1.36329 -0.13407,0.60333 -0.13281,1.13476 -0.13281,1.13476 v 0.80469 l 0.56836,-0.56836 c 0.92143,-0.92143 2.9113,-1.93398 4.36914,-2.41992 l 0.94922,-0.31641 -0.94922,-0.31641 c -1.45784,-0.48594 -3.44771,-1.49849 -4.36914,-2.41992 z m 0.74804,1.49805 c 0.93213,0.73079 2.09155,1.35442 3.24805,1.80664 -1.1565,0.45222 -2.31592,1.07585 -3.24805,1.80664 0.0172,-0.13565 4e-4,-0.14048 0.0352,-0.29687 0.11593,-0.52167 0.35823,-1.04045 0.69922,-1.21094 l 0.5957,-0.29883 -0.5957,-0.29687 c -0.34099,-0.1705 -0.58329,-0.69123 -0.69922,-1.21289 -0.0348,-0.1564 -0.018,-0.16123 -0.0352,-0.29688 z"
             id="path2743" />
        </g>
      </g>
    </g>
    <g
       id="path9009">
      <path
         style="color:#000000;fill:#ff0000;-inkscape-stroke:none"
         d="m 109.04492,101.32422 v 1 h 26.06641 v -1 z"
         id="path2727" />
      <g
         id="g2717">
        <g
           id="path2719">
          <path
             style="color:#000000;fill:#ff0000;fill-rule:evenodd;stroke-width:0.5pt;-inkscape-stroke:none"
             d="m 138.11179,101.82337 c -1.5,0.5 -3.5,1.5 -4.5,2.5 0,0 0,-2 1,-2.5 -1,-0.5 -1,-2.5 -1,-2.5 1,1 3,2 4.5,2.5 z"
             id="path2723" />
          <path
             style="color:#000000;fill:#ff0000;fill-rule:evenodd;-inkscape-stroke:none"
             d="m 133.2793,98.519531 v 0.804688 c 0,0 -0.001,0.531432 0.13281,1.134761 0.10674,0.48032 0.35218,0.99022 0.75586,1.36524 -0.40297,0.37501 -0.64922,0.88533 -0.75586,1.36523 -0.13407,0.60334 -0.13281,1.13477 -0.13281,1.13477 v 0.80469 l 0.56836,-0.57032 c 0.92143,-0.92143 2.9113,-1.93397 4.36914,-2.41992 l 0.94922,-0.31445 -0.94922,-0.31641 c -1.45784,-0.48594 -3.44771,-1.49849 -4.36914,-2.419919 z m 0.74804,1.496099 c 0.93276,0.73128 2.09289,1.35634 3.25,1.80859 -1.15692,0.45224 -2.31743,1.0755 -3.25,1.80664 0.0172,-0.13565 4e-4,-0.14048 0.0352,-0.29688 0.11593,-0.52166 0.35823,-1.04239 0.69922,-1.21289 l 0.5957,-0.29687 -0.5957,-0.29883 c -0.34099,-0.17049 -0.58329,-0.68927 -0.69922,-1.21094 -0.035,-0.15741 -0.018,-0.1625 -0.0352,-0.29882 z"
             id="path2725" />
        </g>
      </g>
    </g>
    <g
       id="path9005">
      <path
         style="color:#000000;fill:#0000ff;-inkscape-stroke:none"
         d="m 59.722656,101.32422 v 1 h 45.167974 v -1 z"
         id="path2695" />
      <g
         id="g2685">
        <g
           id="path2687">
          <path
             style="color:#000000;fill:#0000ff;fill-rule:evenodd;stroke-width:0.5pt;-inkscape-stroke:none"
             d="m 107.89018,101.82337 c -1.5,0.5 -3.5,1.5 -4.5,2.5 0,0 0,-2 1,-2.5 -1,-0.5 -1,-2.5 -1,-2.5 1,1 3,2 4.5,2.5 z"
             id="path2691" />
          <path
             style="color:#000000;fill:#0000ff;fill-rule:evenodd;-inkscape-stroke:none"
             d="m 103.05664,98.519531 v 0.804688 c 0,0 -0.001,0.531432 0.13281,1.134761 0.1067,0.48015 0.35247,0.99022 0.75586,1.36524 -0.40268,0.37501 -0.64925,0.88549 -0.75586,1.36523 -0.13407,0.60334 -0.13281,1.13477 -0.13281,1.13477 v 0.80469 l 0.56836,-0.57032 c 0.92143,-0.92143 2.91326,-1.93397 4.37109,-2.41992 l 0.94727,-0.31445 -0.94727,-0.31641 c -1.45783,-0.48594 -3.44966,-1.49849 -4.37109,-2.419919 z m 0.74805,1.496099 c 0.93288,0.73138 2.09472,1.35633 3.25195,1.80859 -1.15705,0.45225 -2.31926,1.0754 -3.25195,1.80664 0.0172,-0.13565 4e-4,-0.14048 0.0352,-0.29688 0.11593,-0.52166 0.35823,-1.04239 0.69922,-1.21289 l 0.59571,-0.29687 -0.59571,-0.29883 c -0.34099,-0.17049 -0.58329,-0.68927 -0.69922,-1.21094 -0.035,-0.15741 -0.0179,-0.1625 -0.0352,-0.29882 z"
             id="path2693" />
        </g>
      </g>
    </g>
    <g
       transform="matrix(0.81459664,0,0,0.81459664,98.108462,114.16361)"
       ns9:version="1.8.1"
       ns9:texconverter="pdflatex"
       ns9:pdfconverter="inkscape"
       ns9:text="$1$"
       ns9:preamble="C:\Users\Atte\AppData\Roaming\inkscape\extensions\textext\default_packages.tex"
       ns9:scale="1.6147485954339558"
       ns9:alignment="middle center"
       ns9:stroke-to-path="0"
       ns9:jacobian_sqrt="0.569648"
       id="g11291"
       style="fill:#ffffff;fill-opacity:1">
      <defs
         id="id-06dcf642-10b8-4796-9f18-d79611d80365">
        <g
           id="id-f816f825-3a17-4074-a884-b2877e1e6a5b">
          <g
             id="id-85e27281-9f84-4a6e-8df7-b1f8f8c4ec5e" />
          <g
             id="id-5e73a43c-b685-4319-bb23-ec96af8e3586">
            <path
               d="m 2.9375,-6.375 c 0,-0.25 0,-0.265625 -0.234375,-0.265625 C 2.078125,-6 1.203125,-6 0.890625,-6 v 0.3125 c 0.203125,0 0.78125,0 1.296875,-0.265625 v 5.171875 c 0,0.359375 -0.03125,0.46875 -0.921875,0.46875 h -0.3125 V 0 c 0.34375,-0.03125 1.203125,-0.03125 1.609375,-0.03125 0.390625,0 1.265625,0 1.609375,0.03125 v -0.3125 h -0.3125 c -0.90625,0 -0.921875,-0.109375 -0.921875,-0.46875 z m 0,0"
               id="id-918ad547-d0b8-419f-bdd1-8b1fec55679d" />
          </g>
        </g>
      </defs>
      <g
         fill="#000000"
         fill-opacity="1"
         id="id-95d82b7c-8d92-42b5-8795-65cb6c5f9c1e"
         transform="translate(-149.603,-128.124)"
         style="fill:#ffffff;fill-opacity:1">
        <g
           transform="translate(148.712,134.765)"
           id="g11288"
           style="fill:#ffffff;fill-opacity:1">
          <path
             d="m 2.9375,-6.375 c 0,-0.25 0,-0.265625 -0.234375,-0.265625 C 2.078125,-6 1.203125,-6 0.890625,-6 v 0.3125 c 0.203125,0 0.78125,0 1.296875,-0.265625 v 5.171875 c 0,0.359375 -0.03125,0.46875 -0.921875,0.46875 h -0.3125 V 0 c 0.34375,-0.03125 1.203125,-0.03125 1.609375,-0.03125 0.390625,0 1.265625,0 1.609375,0.03125 v -0.3125 h -0.3125 c -0.90625,0 -0.921875,-0.109375 -0.921875,-0.46875 z m 0,0"
             id="id-48b1d86f-e52e-4467-9226-5fa188df42ae"
             style="fill:#ffffff;fill-opacity:1" />
        </g>
      </g>
    </g>
    <g
       transform="matrix(0.81459664,0,0,0.81459664,83.086143,94.173305)"
       ns9:version="1.8.1"
       ns9:texconverter="pdflatex"
       ns9:pdfconverter="inkscape"
       ns9:text="$t$"
       ns9:preamble="C:\Users\Atte\AppData\Roaming\inkscape\extensions\textext\default_packages.tex"
       ns9:scale="1.6147485954339558"
       ns9:alignment="middle center"
       ns9:stroke-to-path="0"
       ns9:jacobian_sqrt="0.569648"
       id="g11375"
       style="fill:#0000ff;fill-opacity:1">
      <defs
         id="id-8d6d3b5d-03d6-4b7a-bb87-1293629818e8">
        <g
           id="id-09acc523-736d-4abf-aa1c-54f6c963b0a4">
          <g
             id="id-ebc7a79c-d722-4cb0-b6ef-aafb4a229ab1" />
          <g
             id="id-18cdef87-a00b-4c28-ad2b-76c2fae76938">
            <path
               d="m 2.046875,-3.984375 h 0.9375 c 0.203125,0 0.3125,0 0.3125,-0.203125 0,-0.109375 -0.109375,-0.109375 -0.28125,-0.109375 h -0.875 C 2.5,-5.71875 2.546875,-5.90625 2.546875,-5.96875 c 0,-0.171875 -0.125,-0.265625 -0.296875,-0.265625 -0.03125,0 -0.3125,0 -0.390625,0.359375 L 1.46875,-4.296875 h -0.9375 c -0.203125,0 -0.296875,0 -0.296875,0.1875 0,0.125 0.078125,0.125 0.28125,0.125 h 0.875 C 0.671875,-1.15625 0.625,-0.984375 0.625,-0.8125 0.625,-0.265625 1,0.109375 1.546875,0.109375 2.5625,0.109375 3.125,-1.34375 3.125,-1.421875 3.125,-1.53125 3.046875,-1.53125 3.015625,-1.53125 2.921875,-1.53125 2.90625,-1.5 2.859375,-1.390625 2.4375,-0.34375 1.90625,-0.109375 1.5625,-0.109375 c -0.203125,0 -0.3125,-0.125 -0.3125,-0.453125 0,-0.25 0.03125,-0.3125 0.0625,-0.484375 z m 0,0"
               id="id-6cd6687f-b90f-4679-89fc-9f97fc0e393a" />
          </g>
        </g>
      </defs>
      <g
         fill="#000000"
         fill-opacity="1"
         id="id-1e5c378d-9a5c-46ce-9f33-5b48765bd604"
         transform="translate(-148.946,-128.531)"
         style="fill:#0000ff;fill-opacity:1">
        <g
           transform="translate(148.712,134.765)"
           id="g11372"
           style="fill:#0000ff;fill-opacity:1">
          <path
             d="m 2.046875,-3.984375 h 0.9375 c 0.203125,0 0.3125,0 0.3125,-0.203125 0,-0.109375 -0.109375,-0.109375 -0.28125,-0.109375 h -0.875 C 2.5,-5.71875 2.546875,-5.90625 2.546875,-5.96875 c 0,-0.171875 -0.125,-0.265625 -0.296875,-0.265625 -0.03125,0 -0.3125,0 -0.390625,0.359375 L 1.46875,-4.296875 h -0.9375 c -0.203125,0 -0.296875,0 -0.296875,0.1875 0,0.125 0.078125,0.125 0.28125,0.125 h 0.875 C 0.671875,-1.15625 0.625,-0.984375 0.625,-0.8125 0.625,-0.265625 1,0.109375 1.546875,0.109375 2.5625,0.109375 3.125,-1.34375 3.125,-1.421875 3.125,-1.53125 3.046875,-1.53125 3.015625,-1.53125 2.921875,-1.53125 2.90625,-1.5 2.859375,-1.390625 2.4375,-0.34375 1.90625,-0.109375 1.5625,-0.109375 c -0.203125,0 -0.3125,-0.125 -0.3125,-0.453125 0,-0.25 0.03125,-0.3125 0.0625,-0.484375 z m 0,0"
             id="id-49b78b9e-03fc-4718-a944-c844a96ae777"
             style="fill:#0000ff;fill-opacity:1" />
        </g>
      </g>
    </g>
    <g
       transform="matrix(0.81459664,0,0,0.81459664,122.08766,94.917795)"
       ns9:version="1.8.1"
       ns9:texconverter="pdflatex"
       ns9:pdfconverter="inkscape"
       ns9:text="$x$"
       ns9:preamble="C:\Users\Atte\AppData\Roaming\inkscape\extensions\textext\default_packages.tex"
       ns9:scale="1.6147485954339558"
       ns9:alignment="middle center"
       ns9:stroke-to-path="0"
       ns9:jacobian_sqrt="0.569648"
       id="g11475"
       style="fill:#ff0000;fill-opacity:1">
      <defs
         id="id-eb7dd1fb-6b18-451b-b653-c6231d23db53">
        <g
           id="id-447ade82-c724-4e76-9d22-980ae5ea5fee">
          <g
             id="id-aba2c3d7-85ab-424c-ab4e-6ab9818dd18d" />
          <g
             id="id-3aa93597-4cf0-42c7-ab77-9f903a14e3f8">
            <path
               d="M 3.328125,-3.015625 C 3.390625,-3.265625 3.625,-4.1875 4.3125,-4.1875 c 0.046875,0 0.296875,0 0.5,0.125 C 4.53125,-4 4.34375,-3.765625 4.34375,-3.515625 c 0,0.15625 0.109375,0.34375 0.375,0.34375 0.21875,0 0.53125,-0.171875 0.53125,-0.578125 0,-0.515625 -0.578125,-0.65625 -0.921875,-0.65625 -0.578125,0 -0.921875,0.53125 -1.046875,0.75 -0.25,-0.65625 -0.78125,-0.75 -1.078125,-0.75 -1.03125,0 -1.609375,1.28125 -1.609375,1.53125 0,0.109375 0.109375,0.109375 0.125,0.109375 0.078125,0 0.109375,-0.03125 0.125,-0.109375 0.34375,-1.0625 1,-1.3125 1.34375,-1.3125 0.1875,0 0.53125,0.09375 0.53125,0.671875 0,0.3125 -0.171875,0.96875 -0.53125,2.375 -0.15625,0.609375 -0.515625,1.03125 -0.953125,1.03125 -0.0625,0 -0.28125,0 -0.5,-0.125 0.25,-0.0625 0.46875,-0.265625 0.46875,-0.546875 0,-0.265625 -0.21875,-0.34375 -0.359375,-0.34375 -0.3125,0 -0.546875,0.25 -0.546875,0.578125 0,0.453125 0.484375,0.65625 0.921875,0.65625 0.671875,0 1.03125,-0.703125 1.046875,-0.75 0.125,0.359375 0.484375,0.75 1.078125,0.75 1.03125,0 1.59375,-1.28125 1.59375,-1.53125 0,-0.109375 -0.078125,-0.109375 -0.109375,-0.109375 -0.09375,0 -0.109375,0.046875 -0.140625,0.109375 -0.328125,1.078125 -1,1.3125 -1.3125,1.3125 -0.390625,0 -0.546875,-0.3125 -0.546875,-0.65625 0,-0.21875 0.046875,-0.4375 0.15625,-0.875 z m 0,0"
               id="id-64d0e837-d73e-478d-ba12-297ee269115d" />
          </g>
        </g>
      </defs>
      <g
         fill="#000000"
         fill-opacity="1"
         id="id-5d09cb96-9a9c-48d0-bb1d-887c6b1c42b5"
         transform="translate(-149.009,-130.359)"
         style="fill:#ff0000;fill-opacity:1">
        <g
           transform="translate(148.712,134.765)"
           id="g11472"
           style="fill:#ff0000;fill-opacity:1">
          <path
             d="M 3.328125,-3.015625 C 3.390625,-3.265625 3.625,-4.1875 4.3125,-4.1875 c 0.046875,0 0.296875,0 0.5,0.125 C 4.53125,-4 4.34375,-3.765625 4.34375,-3.515625 c 0,0.15625 0.109375,0.34375 0.375,0.34375 0.21875,0 0.53125,-0.171875 0.53125,-0.578125 0,-0.515625 -0.578125,-0.65625 -0.921875,-0.65625 -0.578125,0 -0.921875,0.53125 -1.046875,0.75 -0.25,-0.65625 -0.78125,-0.75 -1.078125,-0.75 -1.03125,0 -1.609375,1.28125 -1.609375,1.53125 0,0.109375 0.109375,0.109375 0.125,0.109375 0.078125,0 0.109375,-0.03125 0.125,-0.109375 0.34375,-1.0625 1,-1.3125 1.34375,-1.3125 0.1875,0 0.53125,0.09375 0.53125,0.671875 0,0.3125 -0.171875,0.96875 -0.53125,2.375 -0.15625,0.609375 -0.515625,1.03125 -0.953125,1.03125 -0.0625,0 -0.28125,0 -0.5,-0.125 0.25,-0.0625 0.46875,-0.265625 0.46875,-0.546875 0,-0.265625 -0.21875,-0.34375 -0.359375,-0.34375 -0.3125,0 -0.546875,0.25 -0.546875,0.578125 0,0.453125 0.484375,0.65625 0.921875,0.65625 0.671875,0 1.03125,-0.703125 1.046875,-0.75 0.125,0.359375 0.484375,0.75 1.078125,0.75 1.03125,0 1.59375,-1.28125 1.59375,-1.53125 0,-0.109375 -0.078125,-0.109375 -0.109375,-0.109375 -0.09375,0 -0.109375,0.046875 -0.140625,0.109375 -0.328125,1.078125 -1,1.3125 -1.3125,1.3125 -0.390625,0 -0.546875,-0.3125 -0.546875,-0.65625 0,-0.21875 0.046875,-0.4375 0.15625,-0.875 z m 0,0"
             id="id-08bc3093-a83c-43bf-926f-07d279b1671e"
             style="fill:#ff0000;fill-opacity:1" />
        </g>
      </g>
    </g>
    <g
       transform="matrix(0.81459664,0,0,0.81459664,60.064706,123.98547)"
       ns9:version="1.8.1"
       ns9:texconverter="pdflatex"
       ns9:pdfconverter="inkscape"
       ns9:text="\\begin{align*}\n\\textcolor{blue}{t}+\\textcolor{red}{x}&amp;=1\\\\\n\\textcolor{red}{x}&amp;=1-\\textcolor{blue}{t}\\\\\n\\end{align*}"
       ns9:preamble="C:\Users\Atte\AppData\Roaming\inkscape\extensions\textext\default_packages.tex"
       ns9:scale="1.6147485954339558"
       ns9:alignment="middle center"
       ns9:stroke-to-path="0"
       ns9:jacobian_sqrt="0.569648"
       id="g14279">
      <defs
         id="id-c603d859-5271-4914-a956-35703e202710">
        <g
           id="id-8610e0c4-715d-4a90-877b-4d0be53632d3">
          <g
             id="id-336e982e-76b7-4735-94cb-d7b4e5b0cd8f" />
          <g
             id="id-6d55ed79-8c1b-443b-a763-8d9957262042">
            <path
               d="m 2.046875,-3.984375 h 0.9375 c 0.203125,0 0.3125,0 0.3125,-0.203125 0,-0.109375 -0.109375,-0.109375 -0.28125,-0.109375 h -0.875 C 2.5,-5.71875 2.546875,-5.90625 2.546875,-5.96875 c 0,-0.171875 -0.125,-0.265625 -0.296875,-0.265625 -0.03125,0 -0.3125,0 -0.390625,0.359375 L 1.46875,-4.296875 h -0.9375 c -0.203125,0 -0.296875,0 -0.296875,0.1875 0,0.125 0.078125,0.125 0.28125,0.125 h 0.875 C 0.671875,-1.15625 0.625,-0.984375 0.625,-0.8125 0.625,-0.265625 1,0.109375 1.546875,0.109375 2.5625,0.109375 3.125,-1.34375 3.125,-1.421875 3.125,-1.53125 3.046875,-1.53125 3.015625,-1.53125 2.921875,-1.53125 2.90625,-1.5 2.859375,-1.390625 2.4375,-0.34375 1.90625,-0.109375 1.5625,-0.109375 c -0.203125,0 -0.3125,-0.125 -0.3125,-0.453125 0,-0.25 0.03125,-0.3125 0.0625,-0.484375 z m 0,0"
               id="id-66b8f4e2-b12a-41e2-9a2a-49fb9b05b82f" />
          </g>
          <g
             id="id-d9753790-73e6-4f34-9716-068b189a60a4">
            <path
               d="M 3.328125,-3.015625 C 3.390625,-3.265625 3.625,-4.1875 4.3125,-4.1875 c 0.046875,0 0.296875,0 0.5,0.125 C 4.53125,-4 4.34375,-3.765625 4.34375,-3.515625 c 0,0.15625 0.109375,0.34375 0.375,0.34375 0.21875,0 0.53125,-0.171875 0.53125,-0.578125 0,-0.515625 -0.578125,-0.65625 -0.921875,-0.65625 -0.578125,0 -0.921875,0.53125 -1.046875,0.75 -0.25,-0.65625 -0.78125,-0.75 -1.078125,-0.75 -1.03125,0 -1.609375,1.28125 -1.609375,1.53125 0,0.109375 0.109375,0.109375 0.125,0.109375 0.078125,0 0.109375,-0.03125 0.125,-0.109375 0.34375,-1.0625 1,-1.3125 1.34375,-1.3125 0.1875,0 0.53125,0.09375 0.53125,0.671875 0,0.3125 -0.171875,0.96875 -0.53125,2.375 -0.15625,0.609375 -0.515625,1.03125 -0.953125,1.03125 -0.0625,0 -0.28125,0 -0.5,-0.125 0.25,-0.0625 0.46875,-0.265625 0.46875,-0.546875 0,-0.265625 -0.21875,-0.34375 -0.359375,-0.34375 -0.3125,0 -0.546875,0.25 -0.546875,0.578125 0,0.453125 0.484375,0.65625 0.921875,0.65625 0.671875,0 1.03125,-0.703125 1.046875,-0.75 0.125,0.359375 0.484375,0.75 1.078125,0.75 1.03125,0 1.59375,-1.28125 1.59375,-1.53125 0,-0.109375 -0.078125,-0.109375 -0.109375,-0.109375 -0.09375,0 -0.109375,0.046875 -0.140625,0.109375 -0.328125,1.078125 -1,1.3125 -1.3125,1.3125 -0.390625,0 -0.546875,-0.3125 -0.546875,-0.65625 0,-0.21875 0.046875,-0.4375 0.15625,-0.875 z m 0,0"
               id="id-c8eb88e7-4b94-4c26-a0bd-e4b8b4e9de21" />
          </g>
          <g
             id="id-fc9d4b96-48ab-4491-b8f0-ea33de84b178" />
          <g
             id="id-c3039dbb-610e-47b4-9430-fc28f07c47a7">
            <path
               d="m 4.078125,-2.296875 h 2.78125 C 7,-2.296875 7.1875,-2.296875 7.1875,-2.5 7.1875,-2.6875 7,-2.6875 6.859375,-2.6875 h -2.78125 v -2.796875 c 0,-0.140625 0,-0.328125 -0.203125,-0.328125 -0.203125,0 -0.203125,0.1875 -0.203125,0.328125 V -2.6875 h -2.78125 c -0.140625,0 -0.328125,0 -0.328125,0.1875 0,0.203125 0.1875,0.203125 0.328125,0.203125 h 2.78125 V 0.5 c 0,0.140625 0,0.328125 0.203125,0.328125 0.203125,0 0.203125,-0.1875 0.203125,-0.328125 z m 0,0"
               id="id-5377b7ee-e0ca-4576-ac06-33140b29bda5" />
          </g>
          <g
             id="id-28482f61-dc19-4de1-aabf-812f3503c7c7">
            <path
               d="m 6.84375,-3.265625 c 0.15625,0 0.34375,0 0.34375,-0.1875 C 7.1875,-3.65625 7,-3.65625 6.859375,-3.65625 h -5.96875 c -0.140625,0 -0.328125,0 -0.328125,0.203125 0,0.1875 0.1875,0.1875 0.328125,0.1875 z m 0.015625,1.9375 c 0.140625,0 0.328125,0 0.328125,-0.203125 0,-0.1875 -0.1875,-0.1875 -0.34375,-0.1875 H 0.890625 c -0.140625,0 -0.328125,0 -0.328125,0.1875 0,0.203125 0.1875,0.203125 0.328125,0.203125 z m 0,0"
               id="id-ca0d423b-7ba4-4d03-a98a-4ce2b3026de6" />
          </g>
          <g
             id="id-38c8f6c5-a6b8-488d-8eea-285287af85e1">
            <path
               d="m 2.9375,-6.375 c 0,-0.25 0,-0.265625 -0.234375,-0.265625 C 2.078125,-6 1.203125,-6 0.890625,-6 v 0.3125 c 0.203125,0 0.78125,0 1.296875,-0.265625 v 5.171875 c 0,0.359375 -0.03125,0.46875 -0.921875,0.46875 h -0.3125 V 0 c 0.34375,-0.03125 1.203125,-0.03125 1.609375,-0.03125 0.390625,0 1.265625,0 1.609375,0.03125 v -0.3125 h -0.3125 c -0.90625,0 -0.921875,-0.109375 -0.921875,-0.46875 z m 0,0"
               id="id-4c6675de-29e1-4fcd-a62f-b9026ff525c7" />
          </g>
          <g
             id="id-45862c15-d5b5-403d-999a-2e322f4a31e9" />
          <g
             id="id-ddddea38-3b42-4333-aaf2-82eacb3d8e14">
            <path
               d="m 6.5625,-2.296875 c 0.171875,0 0.359375,0 0.359375,-0.203125 0,-0.1875 -0.1875,-0.1875 -0.359375,-0.1875 H 1.171875 c -0.171875,0 -0.34375,0 -0.34375,0.1875 0,0.203125 0.171875,0.203125 0.34375,0.203125 z m 0,0"
               id="id-bdf7f298-0d05-4d22-8e0f-38b9da879451" />
          </g>
        </g>
      </defs>
      <g
         id="g14379">
        <g
           fill="#0000ff"
           fill-opacity="1"
           id="id-cd1b251e-fe73-4ab6-a1c6-cd5966d61c95"
           transform="translate(-278.104,-150.041)">
          <g
             transform="translate(277.87,156.682)"
             id="g14240">
            <path
               d="m 2.046875,-3.984375 h 0.9375 c 0.203125,0 0.3125,0 0.3125,-0.203125 0,-0.109375 -0.109375,-0.109375 -0.28125,-0.109375 h -0.875 C 2.5,-5.71875 2.546875,-5.90625 2.546875,-5.96875 c 0,-0.171875 -0.125,-0.265625 -0.296875,-0.265625 -0.03125,0 -0.3125,0 -0.390625,0.359375 L 1.46875,-4.296875 h -0.9375 c -0.203125,0 -0.296875,0 -0.296875,0.1875 0,0.125 0.078125,0.125 0.28125,0.125 h 0.875 C 0.671875,-1.15625 0.625,-0.984375 0.625,-0.8125 0.625,-0.265625 1,0.109375 1.546875,0.109375 2.5625,0.109375 3.125,-1.34375 3.125,-1.421875 3.125,-1.53125 3.046875,-1.53125 3.015625,-1.53125 2.921875,-1.53125 2.90625,-1.5 2.859375,-1.390625 2.4375,-0.34375 1.90625,-0.109375 1.5625,-0.109375 c -0.203125,0 -0.3125,-0.125 -0.3125,-0.453125 0,-0.25 0.03125,-0.3125 0.0625,-0.484375 z m 0,0"
               id="id-08bf5144-29aa-44f7-9aac-dd975c5ab0aa" />
          </g>
        </g>
        <g
           fill="#000000"
           fill-opacity="1"
           id="id-591ba669-7082-4e3b-af75-e992c93200b4"
           transform="translate(-278.104,-150.041)"
           style="fill:#fdfdfd;fill-opacity:1">
          <g
             transform="translate(283.682,156.682)"
             id="g14244"
             style="fill:#fdfdfd;fill-opacity:1">
            <path
               d="m 4.078125,-2.296875 h 2.78125 C 7,-2.296875 7.1875,-2.296875 7.1875,-2.5 7.1875,-2.6875 7,-2.6875 6.859375,-2.6875 h -2.78125 v -2.796875 c 0,-0.140625 0,-0.328125 -0.203125,-0.328125 -0.203125,0 -0.203125,0.1875 -0.203125,0.328125 V -2.6875 h -2.78125 c -0.140625,0 -0.328125,0 -0.328125,0.1875 0,0.203125 0.1875,0.203125 0.328125,0.203125 h 2.78125 V 0.5 c 0,0.140625 0,0.328125 0.203125,0.328125 0.203125,0 0.203125,-0.1875 0.203125,-0.328125 z m 0,0"
               id="id-6701db3e-a8c4-4b2f-9589-c74412c7a3ee"
               style="fill:#fdfdfd;fill-opacity:1" />
          </g>
        </g>
        <g
           fill="#ff0000"
           fill-opacity="1"
           id="id-d754bc0c-0fb3-47b8-a48a-0dfc05ddf797"
           transform="translate(-278.104,-150.041)">
          <g
             transform="translate(293.645,156.682)"
             id="g14248">
            <path
               d="M 3.328125,-3.015625 C 3.390625,-3.265625 3.625,-4.1875 4.3125,-4.1875 c 0.046875,0 0.296875,0 0.5,0.125 C 4.53125,-4 4.34375,-3.765625 4.34375,-3.515625 c 0,0.15625 0.109375,0.34375 0.375,0.34375 0.21875,0 0.53125,-0.171875 0.53125,-0.578125 0,-0.515625 -0.578125,-0.65625 -0.921875,-0.65625 -0.578125,0 -0.921875,0.53125 -1.046875,0.75 -0.25,-0.65625 -0.78125,-0.75 -1.078125,-0.75 -1.03125,0 -1.609375,1.28125 -1.609375,1.53125 0,0.109375 0.109375,0.109375 0.125,0.109375 0.078125,0 0.109375,-0.03125 0.125,-0.109375 0.34375,-1.0625 1,-1.3125 1.34375,-1.3125 0.1875,0 0.53125,0.09375 0.53125,0.671875 0,0.3125 -0.171875,0.96875 -0.53125,2.375 -0.15625,0.609375 -0.515625,1.03125 -0.953125,1.03125 -0.0625,0 -0.28125,0 -0.5,-0.125 0.25,-0.0625 0.46875,-0.265625 0.46875,-0.546875 0,-0.265625 -0.21875,-0.34375 -0.359375,-0.34375 -0.3125,0 -0.546875,0.25 -0.546875,0.578125 0,0.453125 0.484375,0.65625 0.921875,0.65625 0.671875,0 1.03125,-0.703125 1.046875,-0.75 0.125,0.359375 0.484375,0.75 1.078125,0.75 1.03125,0 1.59375,-1.28125 1.59375,-1.53125 0,-0.109375 -0.078125,-0.109375 -0.109375,-0.109375 -0.09375,0 -0.109375,0.046875 -0.140625,0.109375 -0.328125,1.078125 -1,1.3125 -1.3125,1.3125 -0.390625,0 -0.546875,-0.3125 -0.546875,-0.65625 0,-0.21875 0.046875,-0.4375 0.15625,-0.875 z m 0,0"
               id="id-7cdc90ef-97e5-4102-8541-f7f7077a42d2" />
          </g>
        </g>
        <g
           fill="#000000"
           fill-opacity="1"
           id="id-11990295-d6cc-40e0-a155-4bc62ce6255b"
           transform="translate(-278.104,-150.041)"
           style="fill:#fdfdfd;fill-opacity:1">
          <g
             transform="translate(302.106,156.682)"
             id="g14252"
             style="fill:#fdfdfd;fill-opacity:1">
            <path
               d="m 6.84375,-3.265625 c 0.15625,0 0.34375,0 0.34375,-0.1875 C 7.1875,-3.65625 7,-3.65625 6.859375,-3.65625 h -5.96875 c -0.140625,0 -0.328125,0 -0.328125,0.203125 0,0.1875 0.1875,0.1875 0.328125,0.1875 z m 0.015625,1.9375 c 0.140625,0 0.328125,0 0.328125,-0.203125 0,-0.1875 -0.1875,-0.1875 -0.34375,-0.1875 H 0.890625 c -0.140625,0 -0.328125,0 -0.328125,0.1875 0,0.203125 0.1875,0.203125 0.328125,0.203125 z m 0,0"
               id="id-9daed4d3-11ca-4a48-843a-dd727f4e61c9"
               style="fill:#fdfdfd;fill-opacity:1" />
          </g>
        </g>
        <g
           fill="#000000"
           fill-opacity="1"
           id="id-ec66a182-0475-46e3-b1fe-6597755ca7bb"
           transform="translate(-278.104,-150.041)"
           style="fill:#fdfdfd;fill-opacity:1">
          <g
             transform="translate(312.625,156.682)"
             id="g14256"
             style="fill:#fdfdfd;fill-opacity:1">
            <path
               d="m 2.9375,-6.375 c 0,-0.25 0,-0.265625 -0.234375,-0.265625 C 2.078125,-6 1.203125,-6 0.890625,-6 v 0.3125 c 0.203125,0 0.78125,0 1.296875,-0.265625 v 5.171875 c 0,0.359375 -0.03125,0.46875 -0.921875,0.46875 h -0.3125 V 0 c 0.34375,-0.03125 1.203125,-0.03125 1.609375,-0.03125 0.390625,0 1.265625,0 1.609375,0.03125 v -0.3125 h -0.3125 c -0.90625,0 -0.921875,-0.109375 -0.921875,-0.46875 z m 0,0"
               id="id-4154a7d7-0631-4eb7-b88e-e2f9d0408e0b"
               style="fill:#fdfdfd;fill-opacity:1" />
          </g>
        </g>
        <g
           fill="#ff0000"
           fill-opacity="1"
           id="id-00850e1d-2bb0-48b9-972d-be20c90095e9"
           transform="translate(-278.104,-150.041)">
          <g
             transform="translate(293.645,171.626)"
             id="g14260">
            <path
               d="M 3.328125,-3.015625 C 3.390625,-3.265625 3.625,-4.1875 4.3125,-4.1875 c 0.046875,0 0.296875,0 0.5,0.125 C 4.53125,-4 4.34375,-3.765625 4.34375,-3.515625 c 0,0.15625 0.109375,0.34375 0.375,0.34375 0.21875,0 0.53125,-0.171875 0.53125,-0.578125 0,-0.515625 -0.578125,-0.65625 -0.921875,-0.65625 -0.578125,0 -0.921875,0.53125 -1.046875,0.75 -0.25,-0.65625 -0.78125,-0.75 -1.078125,-0.75 -1.03125,0 -1.609375,1.28125 -1.609375,1.53125 0,0.109375 0.109375,0.109375 0.125,0.109375 0.078125,0 0.109375,-0.03125 0.125,-0.109375 0.34375,-1.0625 1,-1.3125 1.34375,-1.3125 0.1875,0 0.53125,0.09375 0.53125,0.671875 0,0.3125 -0.171875,0.96875 -0.53125,2.375 -0.15625,0.609375 -0.515625,1.03125 -0.953125,1.03125 -0.0625,0 -0.28125,0 -0.5,-0.125 0.25,-0.0625 0.46875,-0.265625 0.46875,-0.546875 0,-0.265625 -0.21875,-0.34375 -0.359375,-0.34375 -0.3125,0 -0.546875,0.25 -0.546875,0.578125 0,0.453125 0.484375,0.65625 0.921875,0.65625 0.671875,0 1.03125,-0.703125 1.046875,-0.75 0.125,0.359375 0.484375,0.75 1.078125,0.75 1.03125,0 1.59375,-1.28125 1.59375,-1.53125 0,-0.109375 -0.078125,-0.109375 -0.109375,-0.109375 -0.09375,0 -0.109375,0.046875 -0.140625,0.109375 -0.328125,1.078125 -1,1.3125 -1.3125,1.3125 -0.390625,0 -0.546875,-0.3125 -0.546875,-0.65625 0,-0.21875 0.046875,-0.4375 0.15625,-0.875 z m 0,0"
               id="id-e2574c97-68a5-4f65-80b4-2b041124fb2a" />
          </g>
        </g>
        <g
           fill="#000000"
           fill-opacity="1"
           id="id-3656c63a-4bf0-4779-ad0c-c91bb84b3036"
           transform="translate(-278.104,-150.041)"
           style="fill:#fdfdfd;fill-opacity:1">
          <g
             transform="translate(302.106,171.626)"
             id="g14264"
             style="fill:#fdfdfd;fill-opacity:1">
            <path
               d="m 6.84375,-3.265625 c 0.15625,0 0.34375,0 0.34375,-0.1875 C 7.1875,-3.65625 7,-3.65625 6.859375,-3.65625 h -5.96875 c -0.140625,0 -0.328125,0 -0.328125,0.203125 0,0.1875 0.1875,0.1875 0.328125,0.1875 z m 0.015625,1.9375 c 0.140625,0 0.328125,0 0.328125,-0.203125 0,-0.1875 -0.1875,-0.1875 -0.34375,-0.1875 H 0.890625 c -0.140625,0 -0.328125,0 -0.328125,0.1875 0,0.203125 0.1875,0.203125 0.328125,0.203125 z m 0,0"
               id="id-58abbc10-03db-43d8-8272-1ea070b534d5"
               style="fill:#fdfdfd;fill-opacity:1" />
          </g>
        </g>
        <g
           fill="#000000"
           fill-opacity="1"
           id="id-48b1d299-005d-43e3-9179-bc22401f638a"
           transform="translate(-278.104,-150.041)"
           style="fill:#fdfdfd;fill-opacity:1">
          <g
             transform="translate(312.625,171.626)"
             id="g14268"
             style="fill:#fdfdfd;fill-opacity:1">
            <path
               d="m 2.9375,-6.375 c 0,-0.25 0,-0.265625 -0.234375,-0.265625 C 2.078125,-6 1.203125,-6 0.890625,-6 v 0.3125 c 0.203125,0 0.78125,0 1.296875,-0.265625 v 5.171875 c 0,0.359375 -0.03125,0.46875 -0.921875,0.46875 h -0.3125 V 0 c 0.34375,-0.03125 1.203125,-0.03125 1.609375,-0.03125 0.390625,0 1.265625,0 1.609375,0.03125 v -0.3125 h -0.3125 c -0.90625,0 -0.921875,-0.109375 -0.921875,-0.46875 z m 0,0"
               id="id-30891ebf-2633-4adb-9aec-d37a6bfff03e"
               style="fill:#fdfdfd;fill-opacity:1" />
          </g>
        </g>
        <g
           fill="#000000"
           fill-opacity="1"
           id="id-579a4a12-582b-47ca-9388-707cec0d0f86"
           transform="translate(-278.104,-150.041)"
           style="fill:#fdfdfd;fill-opacity:1">
          <g
             transform="translate(319.817,171.626)"
             id="g14272"
             style="fill:#fdfdfd;fill-opacity:1">
            <path
               d="m 6.5625,-2.296875 c 0.171875,0 0.359375,0 0.359375,-0.203125 0,-0.1875 -0.1875,-0.1875 -0.359375,-0.1875 H 1.171875 c -0.171875,0 -0.34375,0 -0.34375,0.1875 0,0.203125 0.171875,0.203125 0.34375,0.203125 z m 0,0"
               id="id-3da2de36-21d8-4b6b-bb36-ddfbba62caf5"
               style="fill:#fdfdfd;fill-opacity:1" />
          </g>
        </g>
        <g
           fill="#0000ff"
           fill-opacity="1"
           id="id-53698ea6-13ad-4250-9a5d-11b99851c79d"
           transform="translate(-278.104,-150.041)">
          <g
             transform="translate(329.78,171.626)"
             id="g14276">
            <path
               d="m 2.046875,-3.984375 h 0.9375 c 0.203125,0 0.3125,0 0.3125,-0.203125 0,-0.109375 -0.109375,-0.109375 -0.28125,-0.109375 h -0.875 C 2.5,-5.71875 2.546875,-5.90625 2.546875,-5.96875 c 0,-0.171875 -0.125,-0.265625 -0.296875,-0.265625 -0.03125,0 -0.3125,0 -0.390625,0.359375 L 1.46875,-4.296875 h -0.9375 c -0.203125,0 -0.296875,0 -0.296875,0.1875 0,0.125 0.078125,0.125 0.28125,0.125 h 0.875 C 0.671875,-1.15625 0.625,-0.984375 0.625,-0.8125 0.625,-0.265625 1,0.109375 1.546875,0.109375 2.5625,0.109375 3.125,-1.34375 3.125,-1.421875 3.125,-1.53125 3.046875,-1.53125 3.015625,-1.53125 2.921875,-1.53125 2.90625,-1.5 2.859375,-1.390625 2.4375,-0.34375 1.90625,-0.109375 1.5625,-0.109375 c -0.203125,0 -0.3125,-0.125 -0.3125,-0.453125 0,-0.25 0.03125,-0.3125 0.0625,-0.484375 z m 0,0"
               id="id-35ac416c-de61-4613-a88c-5d523c91846c" />
          </g>
        </g>
      </g>
    </g>
  </g>
</svg>
