<?xml version="1.0" encoding="UTF-8"?><svg id="LOGO_LAYER" xmlns="http://www.w3.org/2000/svg" viewBox="0 0 576.63 280.04"><defs><style>.cls-1{fill:#f9f9f9;}.cls-2{fill:#007c30;}.cls-3{fill:#cf1721;}</style></defs><g id="LOGO_GROUP"><g id="SELECT_FLAG_HERE"><g id="BLACK_FLAG"><path class="cls-2" d="m269.11,179.41v19.77c9.04,7.75,17.76,13.44,20.11,18.19,3.74-11.11,22.71-26.23,36.96-44.58l-57.07,6.02v.59Z"/><polygon class="cls-1" points="267.02 194.57 267.02 193.68 265.98 193.79 265.98 194.68 265.98 195.58 267.02 195.46 267.02 194.57"/><path class="cls-1" d="m268.07,195.35v1.78l-1.05.11v.11c.7.62,1.39,1.23,2.09,1.83v-3.93l-1.04.11Z"/><path class="cls-1" d="m246.35,152.71v.89l1.04-.11v1.78l1.04-.11v1.78l1.05-.11v-1.78l.94-.1v-1.78l1.04-.11v-1.78l1.05-.11v-1.69l1.04-.11v-1.78l1.04-.11v-1.78l-1.04.11v-1.78l-1.04.11v-1.78l-1.05.11-1.04.11-.94.1v1.78l.94-.1,1.04-.11v1.78l-1.04.11v1.78l-.94.1v1.78l-1.05.11v-1.78l-1.04.11v-1.78l-1.04.11v-.62c-.13.79-.25,1.6-.35,2.43l.35-.04v1.78l-.55.06c-.05.56-.1,1.13-.14,1.7l.69-.07v.89Z"/><polygon class="cls-1" points="260.86 128.31 260.86 127.42 259.82 127.53 259.82 128.42 259.82 129.31 260.86 129.2 260.86 128.31"/><polygon class="cls-1" points="269.11 175.85 268.07 175.96 268.07 175.07 268.07 174.18 269.11 174.07 269.11 172.37 268.07 172.49 268.07 171.6 268.07 170.71 267.02 170.82 267.02 169.93 267.02 169.04 265.98 169.15 265.98 168.26 265.98 167.37 264.93 167.48 264.93 168.37 264.93 169.26 263.89 169.37 263.89 170.26 263.89 171.15 262.85 171.26 262.85 172.15 262.85 173.04 261.91 173.13 261.91 174.02 261.91 174.83 260.86 174.94 260.86 175.83 260.86 176.72 259.82 176.83 259.82 177.72 259.82 178.61 260.86 178.5 260.86 179.38 260.86 180.28 261.91 180.17 261.91 181.05 261.91 181.94 262.85 181.85 263.89 181.74 264.93 181.63 264.93 180.74 264.93 179.85 263.89 179.96 262.85 180.07 262.85 179.18 262.85 178.29 263.89 178.18 263.89 177.29 263.89 176.4 264.93 176.29 264.93 175.4 264.93 174.51 265.98 174.4 265.98 175.29 265.98 176.18 267.02 176.07 267.02 176.96 267.02 177.84 268.07 177.74 268.07 178.63 268.07 179.52 269.11 179.41 269.11 178.81 269.11 175.85"/><polygon class="cls-1" points="268.07 155.67 268.07 156.56 267.02 156.67 267.02 157.56 267.02 158.45 265.98 158.56 265.98 159.45 265.98 160.34 264.93 160.45 264.93 161.34 264.93 162.23 265.98 162.12 265.98 163.01 265.98 163.9 267.02 163.79 267.02 164.68 267.02 165.57 268.07 165.46 268.07 166.34 268.07 167.15 269.11 167.04 269.11 154.76 268.07 154.87 268.07 155.67"/><path class="cls-1" d="m264.93,193.9v-1.69l1.04-.11v-1.78l1.04-.11v1.78l1.05-.11v1.69l1.04-.11v-5.25l-1.04.11v-1.78l1.04-.11v-3.47l-1.04.11v1.69l-1.04.11v1.78l-1.04.11v1.78l-1.04.11v1.78l-1.04.11v1.78l-1.04.11v-1.78l-.94.1v-1.78l-1.04.11v-1.78l-1.04.11v-1.78l-1.04.11v-1.69l-1.05.11v-1.78l-1.04.11v1.78l-1.04.11v.92c.61.8,1.23,1.59,1.87,2.35l.21-.02v.28c.86,1.03,1.75,2.03,2.66,3l.47-.05v.54c.99,1.05,2,2.06,3.03,3.04v-.44l1.04-.11Z"/><path class="cls-1" d="m247.4,166.75v-.89l1.04-.11v-1.78l1.05-.11v-1.78l-1.05.11v-1.78l-1.04.11v-1.78l-1.04.11v-1.69l-.87.09c.03,3.69.51,7.17,1.35,10.45l.56-.06v-.89Z"/><path class="cls-1" d="m250.43,132.88h0c-.16.3-.31.61-.47.94l.47-.05v-.89Z"/><path class="cls-1" d="m251.47,132.77v.89l1.05-.11v1.78l1.04-.11v1.78l1.05-.11v1.78l1.04-.11v1.69l1.05-.11v1.78l1.04-.11v-1.78l1.04-.11v-1.69l1.04-.11v-1.78l1.04-.11v-1.78l1.04-.11v-1.78l.94-.1v-1.78l1.04-.11v1.78l1.04-.11v1.78l1.04-.11v1.78l1.04-.11v1.78l1.05-.11v1.69l1.04-.11v-3.47l-1.04.11v-1.78l1.04-.11v-5.25l-1.04.11v1.69l-1.05.11v1.78l-1.04.11v-1.78l-1.04.11v-1.69l-1.04.11v-1.78l1.04-.11v-1.78l1.04-.11v-1.78h.05s.99-.11.99-.11v1.78l1.05-.11v1.78l1.04-.11v-5.34l-1.04.11v-1.69l1.04-.11v-.51c-.14,0-.26-.02-.4-.02-.54,0-1.1.04-1.69.12v.63l-1.04.11v1.69l-1.05.11v1.78l-1.04.11v1.78l-1.05.11v-1.78l-.94.1v-1.78l-1.05.11v-.79c-1.04.59-2.09,1.31-3.13,2.16v.74l-.97.1c-.66.6-1.31,1.26-1.94,1.98l.82-.09v1.78l1.04-.11v1.78l-1.04.11v1.69l-1.04.11v1.78l-1.04.11v-1.78l-1.04.11v-1.69l-.56.06c-.36.58-.71,1.17-1.05,1.8l.56-.06v.89Zm6.26-4.13v-.89l1.04-.11v-1.78l1.05-.11v-1.78l1.04-.11v1.78l1.05-.11v1.78l.94-.1v1.78l-.94.1v1.69l-1.05.11v1.78l-1.04.11v-1.78l-1.05.11v-1.69l-1.04.11v-.89Zm-1.04,7.14v-2.67l1.04-.11v3.56l-1.04.11v-.89Z"/><path class="cls-1" d="m249.49,134.88c-.11.26-.22.54-.33.81l.33-.04v-.77Z"/><polygon class="cls-1" points="268.07 143.39 268.07 144.28 267.02 144.39 267.02 145.28 267.02 146.17 265.98 146.28 265.98 147.17 265.98 148.06 264.93 148.17 264.93 147.28 264.93 146.39 263.89 146.5 263.89 145.61 263.89 144.72 262.85 144.83 262.85 143.94 262.85 143.05 263.89 142.94 264.93 142.83 264.93 141.94 264.93 141.05 263.89 141.16 262.85 141.27 261.91 141.37 261.91 142.26 261.91 143.15 260.86 143.26 260.86 144.15 260.86 145.04 259.82 145.15 259.82 146.04 259.82 146.93 260.86 146.82 260.86 147.71 260.86 148.6 261.91 148.49 261.91 149.29 261.91 150.18 262.85 150.08 262.85 150.97 262.85 151.86 263.89 151.75 263.89 152.64 263.89 153.53 264.93 153.42 264.93 154.31 264.93 155.2 265.98 155.09 265.98 154.2 265.98 153.31 267.02 153.2 267.02 152.31 267.02 151.42 268.07 151.31 268.07 150.42 268.07 149.53 269.11 149.42 269.11 147.73 268.07 147.84 268.07 146.95 268.07 146.06 269.11 145.95 269.11 142.39 268.07 142.5 268.07 143.39"/><path class="cls-1" d="m261.91,156.32v-.8l-1.04.11v-1.78l-1.04.11v-1.78l-1.05.11v-1.78l-1.04.11v-1.69l-1.04.11v1.69l-1.04.11v1.78l-1.04.11v1.78l-1.04.11v1.78l-1.04.11v1.69l-1.04.11v8.9l1.04-.11v1.69l1.04-.11v1.78l1.04-.11v1.78l1.04-.11v1.78l1.04-.11v1.69l1.04-.11v-1.69l1.04-.11v-1.78l1.05-.11v-1.78l1.04-.11v-1.78l1.04-.11v-1.69l.94-.1v-8.9l-.94.1v-.89Zm-8.14,6.2v.89l-1.05.11v-1.78l1.05-.11v.89Zm2.92-9.12v-.89l1.04-.11v1.78l-1.04.11v-.89Zm1.04,17.51v.89l-1.04.11v-1.78l1.04-.11v.89Zm2.09-14.37v2.67l-1.05.11v1.78l-1.04.11v1.78l1.04-.11v1.78l1.05-.11v3.47l-1.05.11v-1.69l-1.04.11v-1.78l-1.04.11v1.78l-1.04.11v1.69l-1.04.11v-3.47l1.04-.11v-1.78l1.04-.11v-1.78l-1.04.11v-1.78l-1.04.11v-3.47l1.04-.11v1.69l1.04-.11v1.78l1.04-.11v-1.78l1.04-.11v-1.69l1.05-.11v.8Zm1.88,5.14v.89l-1.04.11v-1.78l1.04-.11v.89Z"/><path class="cls-1" d="m253.56,180.16v-.89l1.04-.11v-1.78l-1.04.11v-1.78l-1.04.11v-1.69l-1.05.11v-1.78l-1.04.11v-1.78l-.94.1v-1.78l-1.05.11v1.78l-.6.06c1.25,3.61,2.93,6.95,4.9,10.07l.82-.09v-.89Z"/><polygon class="cls-1" points="254.6 128.97 254.6 128.08 253.56 128.19 253.56 129.08 253.56 129.97 254.6 129.86 254.6 128.97"/><path class="cls-1" d="m263.89,119.9c-.21.07-.42.15-.63.24l.63-.07v-.17Z"/><polygon class="cls-1" points="265.98 127.77 265.98 128.66 267.02 128.55 267.02 127.66 267.02 126.77 265.98 126.88 265.98 127.77"/><polygon class="cls-3" points="268.07 187.43 268.07 188.33 269.11 188.22 269.11 187.33 269.11 186.43 268.07 186.54 268.07 187.43"/><polygon class="cls-3" points="260.66 161.79 260.66 162.68 261.7 162.57 261.7 161.68 261.7 160.79 260.66 160.9 260.66 161.79"/><polygon class="cls-3" points="256.69 171.02 256.69 171.91 257.73 171.8 257.73 170.91 257.73 170.02 256.69 170.13 256.69 171.02"/><polygon class="cls-3" points="252.72 162.63 252.72 163.52 253.77 163.41 253.77 162.52 253.77 161.63 252.72 161.74 252.72 162.63"/><polygon class="cls-3" points="257.73 153.29 257.73 152.4 256.69 152.51 256.69 153.4 256.69 154.29 257.73 154.18 257.73 153.29"/><path class="cls-3" d="m268.07,197.13v-1.78l1.04-.11v-1.78l-1.04.11v-1.69l-1.05.11v-1.78l-1.04.11v1.78l-1.04.11v1.69l-1.04.11v.44c1.04,1,2.08,1.96,3.13,2.9v-.11l1.05-.11Zm-2.09-2.45v-.89l1.04-.11v1.78l-1.04.11v-.89Z"/><path class="cls-3" d="m257.52,187.66c.07.09.14.17.21.26v-.28l-.21.02Z"/><path class="cls-3" d="m260.39,190.91c.16.17.31.33.47.5v-.54l-.47.05Z"/><path class="cls-3" d="m258.78,130.31v.8l1.05-.11v1.78l1.04-.11v-1.78l1.05-.11v-1.69l.94-.1v-1.78l-.94.1v-1.78l-1.05.11v-1.78l-1.04.11v1.78l-1.05.11v1.78l-1.04.11v1.78l1.04-.11v.89Zm1.05-1.89v-.89l1.04-.11v1.78l-1.04.11v-.89Z"/><polygon class="cls-3" points="258.78 156.65 258.78 157.54 257.73 157.65 257.73 158.54 257.73 159.43 256.69 159.54 256.69 158.65 256.69 157.76 255.65 157.87 255.65 156.98 255.65 156.18 254.6 156.29 254.6 157.09 254.6 157.98 254.6 158.87 254.6 159.76 255.65 159.65 255.65 160.54 255.65 161.43 256.69 161.32 256.69 162.21 256.69 163.1 255.65 163.21 255.65 164.1 255.65 164.99 254.6 165.1 254.6 165.99 254.6 166.88 254.6 167.77 254.6 168.57 255.65 168.46 255.65 167.66 255.65 166.77 256.69 166.66 256.69 165.77 256.69 164.88 257.73 164.77 257.73 165.66 257.73 166.55 258.78 166.44 258.78 167.33 258.78 168.13 259.82 168.02 259.82 167.22 259.82 166.33 259.82 165.44 259.82 164.55 258.78 164.66 258.78 163.77 258.78 162.88 257.73 162.99 257.73 162.1 257.73 161.21 258.78 161.1 258.78 160.21 258.78 159.32 259.82 159.21 259.82 158.32 259.82 157.43 259.82 156.54 259.82 155.74 258.78 155.85 258.78 156.65"/><path class="cls-3" d="m246.36,149.24v-.89l-.35.04c-.07.59-.13,1.19-.19,1.8l.55-.06v-.89Z"/><path class="cls-3" d="m252.52,130.97v.8l1.04-.11v1.78l1.04-.11v-1.78l1.04-.11v-1.69l1.04-.11v-1.78l-1.04.11v-1.78l-.82.09c-1,1.13-1.96,2.42-2.87,3.86l.56-.06v.89Zm1.04-1.89v-.89l1.04-.11v1.78l-1.04.11v-.89Z"/><path class="cls-3" d="m261.91,121.98v1.78l.94-.1v1.78l1.05-.11v-1.78l1.04-.11v-1.78l1.05-.11v-1.69l1.04-.11v-.63c-.99.14-2.04.4-3.13.79v.17l-.63.07c-.79.31-1.59.7-2.4,1.15v.79l1.05-.11Z"/><path class="cls-3" d="m257.73,123.46c-.32.27-.65.55-.97.84l.97-.1v-.74Z"/><polygon class="cls-3" points="257.73 135.67 257.73 134.78 257.73 133.89 257.73 133 256.69 133.11 256.69 134 256.69 134.89 256.69 135.78 256.69 136.67 257.73 136.56 257.73 135.67"/><path class="cls-3" d="m322.79,106.72c-16.31,0-29.59,19.06-30.96,25.31-1.37,6.25-5.64,3.2-6.4-.61-.75-3.77-5.32-12.2-16.31-12.41v.51l-1.04.11v1.69l1.04-.11v5.34l-1.04.11v-1.78l-1.05.11v-1.78l-.99.1h-.05v1.79l-1.04.11v1.78l-1.04.11v1.78l1.04-.11v1.69l1.04-.11v1.78l1.04-.11v-1.78l1.05-.11v-1.69l1.04-.11v5.25l-1.04.11v1.78l1.04-.11v3.47l-1.04.11v-1.69l-1.05.11v-1.78l-1.04.11v-1.78l-1.04.11v-1.78l-1.04.11v-1.78l-1.04.11v1.78l-.94.1v1.78l-1.04.11v1.78l-1.04.11v1.78l-1.04.11v1.69l-1.04.11v1.78l-1.04.11v-1.78l-1.05.11v-1.69l-1.04.11v-1.78l-1.05.11v-1.78l-1.04.11v-1.78l-1.05.11v-1.78l-.56.06c-.16.3-.32.62-.48.93h0v.9l-.47.05c-.16.35-.32.7-.48,1.06v.77l-.33.04c-1.19,2.95-2.16,6.36-2.8,10.27v.62l1.04-.11v1.78l1.04-.11v1.78l1.05-.11v-1.78l.94-.1v-1.78l1.04-.11v-1.78l-1.04.11-.94.1v-1.78l.94-.1,1.04-.11,1.05-.11v1.78l1.04-.11v1.78l1.04-.11v1.78l-1.04.11v1.78l-1.04.11v1.69l-1.05.11v1.78l-1.04.11v1.78l-.94.1v1.78l-1.05.11v-1.78l-1.04.11v-1.78l-1.04.11v-1.78l-.69.07c-.1,1.46-.17,2.96-.19,4.53,0,.28,0,.55,0,.82l.87-.09v1.69l1.04-.11v1.78l1.04-.11v1.78l1.05-.11v1.78l-1.05.11v1.78l-1.04.11v1.78l-.56.06c.29,1.15.63,2.27,1.01,3.36l.6-.06v-1.78l1.05-.11v1.78l.94-.1v1.78l1.04-.11v1.78l1.05-.11v1.69l1.04-.11v1.78l1.04-.11v1.78l-1.04.11v1.78l-.82.09c.91,1.44,1.88,2.82,2.9,4.17v-.92l1.04-.11v-1.78l1.04-.11v1.78l1.05-.11v1.69l1.04-.11v1.78l1.04-.11v1.78l1.04-.11v1.78l.94-.1v1.78l1.04-.11v-1.78l1.04-.11v-1.78l1.04-.11v-1.78l1.04-.11v-1.78l1.04-.11v-1.69l1.04-.11v-3.56l-1.04.11v-1.78l-1.05.11v-1.78l-1.04.11v-1.78l-1.04.11v1.78l-1.04.11v1.78l-1.04.11v1.78l1.04-.11,1.04-.11v1.78l-1.04.11-1.04.11-.94.1v-1.78l-1.04.11v-1.78l-1.04.11v-1.78l1.04-.11v-1.78l1.04-.11v-1.69l.94-.1v-1.78l1.04-.11v-1.78l1.04-.11v-1.78l1.04-.11v1.78l1.04-.11v1.78l1.05-.11v1.78l1.04-.11v1.69l-1.04.11v1.78l1.04-.11v2.97l57.07-6.02c8.81-11.35,15.81-23.93,16.28-37.56.45-13.11-4.73-28.52-19.67-28.52Zm-55.77,20.95v.89l-1.04.11v-1.78l1.04-.11v.89Zm-4.17,30.34v8.01l-.94.1v1.69l-1.04.11v1.78l-1.04.11v1.78l-1.05.11v1.78l-1.04.11v1.69l-1.04.11v-1.69l-1.04.11v-1.78l-1.04.11v-1.78l-1.04.11v-1.78l-1.04.11v-1.69l-1.04.11v-8.9l1.04-.11v-1.69l1.04-.11v-1.78l1.04-.11v-1.78l1.04-.11v-1.78l1.04-.11v-1.69l1.04-.11v1.69l1.04-.11v1.78l1.05-.11v1.78l1.04-.11v1.78l1.04-.11v1.69l.94-.1v.89Zm6.26,9.03l-1.04.11v-1.69l-1.05.11v-1.78l-1.04.11v-1.78l-1.04.11v-1.78l1.04-.11v-1.78l1.04-.11v-1.78l1.05-.11v-1.69l1.04-.11v12.28Zm0-21.08l-1.04.11v1.78l1.04-.11v1.69l-1.04.11v1.78l-1.05.11v1.78l-1.04.11v1.78l-1.04.11v-1.78l-1.04.11v-1.78l-1.04.11v-1.78l-.94.1v-1.69l-1.04.11v-1.78l-1.04.11v-1.78l1.04-.11v-1.78l1.04-.11v-1.78l.94-.1,1.04-.11,1.04-.11v1.78l-1.04.11-1.04.11v1.78l1.04-.11v1.78l1.04-.11v1.78l1.04-.11v-1.78l1.04-.11v-1.78l1.05-.11v-1.78l1.04-.11v3.56Z"/><path d="m328.12,97.88c-13.42,0-29.29,9.91-38.89,26.38-2.59-5.95-11.83-12.43-22.8-12.43-8.84,0-33.67,11.05-33.67,46.73,0,46.05,46.59,55.51,56.01,69.82.65.99,2.73,1.73,3.53-.62,7.51-22.18,65.79-47.24,65.79-92.37,0-25.31-16.53-37.51-29.95-37.51Zm14.33,37.36c-.47,13.63-7.47,26.21-16.28,37.56-14.24,18.35-33.22,33.47-36.96,44.58-2.35-4.76-11.07-10.44-20.11-18.19-.7-.6-1.39-1.21-2.09-1.83-1.05-.94-2.1-1.9-3.13-2.9-1.02-.98-2.04-2-3.03-3.04-.16-.16-.31-.33-.47-.5-.91-.97-1.8-1.97-2.66-3-.07-.09-.14-.17-.21-.26-.64-.77-1.26-1.55-1.87-2.35-1.02-1.34-1.99-2.73-2.9-4.17-1.97-3.12-3.65-6.47-4.9-10.07-.38-1.1-.71-2.22-1.01-3.36-.84-3.28-1.32-6.75-1.35-10.45,0-.27,0-.55,0-.82.02-1.57.09-3.08.19-4.53.04-.58.09-1.14.14-1.7.06-.61.12-1.21.19-1.8.1-.83.22-1.64.35-2.43.64-3.91,1.61-7.32,2.8-10.27.11-.27.22-.54.33-.81.15-.36.31-.71.48-1.06.15-.32.31-.64.47-.95.16-.31.31-.63.48-.93.34-.63.69-1.22,1.05-1.8.9-1.44,1.87-2.73,2.87-3.86.64-.72,1.28-1.38,1.94-1.98.32-.29.64-.57.97-.84,1.04-.85,2.09-1.57,3.13-2.16.81-.46,1.61-.84,2.4-1.15.21-.08.42-.16.63-.24,1.09-.39,2.14-.65,3.13-.79.59-.08,1.15-.12,1.69-.12.14,0,.26.02.4.02,10.99.21,15.56,8.64,16.31,12.41.76,3.81,5.03,6.86,6.4.61,1.37-6.25,14.65-25.31,30.96-25.31,14.94,0,20.12,15.41,19.67,28.52Z"/></g></g></g></svg>