<?xml version="1.0" encoding="UTF-8"?><svg id="LOGO_LAYER" xmlns="http://www.w3.org/2000/svg" viewBox="0 0 576.63 280.04"><defs><style>.cls-1{fill:#f9f9f9;}.cls-2{fill:#003893;}.cls-3{fill:#fff;}.cls-4{fill:#fcd115;}.cls-5{fill:#de0000;}</style></defs><g id="LOGO_GROUP"><g id="SELECT_FLAG_HERE"><g id="BLACK_FLAG"><path class="cls-2" d="m322.79,106.72c-16.31,0-29.59,19.06-30.96,25.31-1.37,6.25-5.64,3.2-6.4-.61-.76-3.81-5.42-12.43-16.71-12.43-7.37,0-20.36,7.43-22.82,30.38l41.76-4.39,1.98-6.29,1.98,5.87,50.52-5.31c.17-1.33.29-2.67.33-4.03.45-13.11-4.73-28.52-19.67-28.52Z"/><path class="cls-1" d="m295.18,155.19l17.96-1.89-14.53,12.08,4.43,13.16,20.24-2.13c9.22-11.17,17.11-23.62,18.85-37.16l-50.52,5.31,3.57,10.62Z"/><polygon class="cls-1" points="279.86 180.98 299.4 178.93 289.63 172.85 279.86 180.98"/><path class="cls-1" d="m280.65,167.27l-14.53-9.03,17.96-1.89,3.57-11.37-41.76,4.39c-.24,2.21-.38,4.55-.41,7.05-.12,10.76,3.61,19.7,8.95,27.23l21.79-2.29,4.43-14.09Z"/><path class="cls-5" d="m304.16,181.88l-4.76-2.96-19.55,2.05-4.76,3.95,1.12-3.57-21.79,2.29c11.69,16.48,31.09,26.24,34.79,33.71,3.49-10.37,20.25-24.23,34.06-40.95l-20.24,2.13,1.12,3.34Z"/><polygon class="cls-5" points="282.2 166.61 277.61 181.22 289.63 171.23 301.65 178.7 297.06 165.05 309.08 155.05 294.22 156.61 289.63 142.96 285.04 157.57 270.18 159.14 282.2 166.61"/><path class="cls-4" d="m266.12,158.25l14.53,9.03-4.43,14.09-1.12,3.57,4.76-3.95,9.77-8.13,9.77,6.07,4.76,2.96-1.12-3.34-4.43-13.16,14.53-12.08-17.96,1.89-3.57-10.62-1.98-5.87-1.98,6.29-3.57,11.37-17.96,1.89Zm23.51-15.28l4.59,13.65,14.86-1.56-12.02,10,4.59,13.65-12.02-7.47-12.02,10,4.59-14.61-12.02-7.47,14.86-1.56,4.59-14.61Z"/><path class="cls-3" d="m328.12,97.88c-13.42,0-29.29,9.91-38.89,26.38-2.59-5.95-11.83-12.43-22.8-12.43-8.84,0-33.67,11.05-33.67,46.73,0,46.05,46.59,55.51,56.01,69.82.65.99,2.73,1.73,3.53-.62,7.51-22.18,65.79-47.24,65.79-92.37,0-25.31-16.53-37.51-29.95-37.51Zm14.33,37.36c-.05,1.35-.16,2.69-.33,4.03-1.73,13.54-9.62,25.99-18.85,37.16-13.8,16.72-30.57,30.58-34.06,40.95-3.7-7.48-23.1-17.24-34.79-33.71-5.34-7.53-9.07-16.47-8.95-27.23.03-2.5.17-4.85.41-7.05,2.47-22.95,15.45-30.38,22.82-30.38,11.28,0,15.94,8.61,16.71,12.43.76,3.81,5.03,6.86,6.4.61,1.37-6.25,14.65-25.31,30.96-25.31,14.94,0,20.12,15.41,19.67,28.52Z"/></g></g></g></svg>