<?xml version="1.0" encoding="UTF-8"?><svg id="LOGO_LAYER" xmlns="http://www.w3.org/2000/svg" viewBox="0 0 576.63 280.04"><defs><style>.cls-1{fill:#f8e929;}.cls-2{fill:#d91b20;}</style></defs><g id="LOGO_GROUP"><g id="SELECT_FLAG_HERE"><g id="BLACK_FLAG"><path class="cls-2" d="m270.92,163.95c0,.66.03,1.31.1,1.94l-23.29,4.79c1.6,4.77,3.96,9.1,6.77,13.05l18.48-11.23c.46.87.99,1.69,1.58,2.46l-16.37,13.47c7.4,8.63,16.52,15.23,23.07,20.61l5.37-27.52c1.24.12,2.52.11,3.83-.03,1.32-.14,2.59-.4,3.84-.78l4.56,22.44c6.04-6.84,13.93-14.57,21.33-23.09l-13.82-8.45c.59-.89,1.12-1.83,1.58-2.79l16.27,6.45c3.52-4.35,6.82-8.89,9.63-13.6l-23.93.12c.06-.65.1-1.3.1-1.96s-.03-1.31-.1-1.94l28.8-5.93c2.18-5.38,3.55-10.96,3.75-16.73.05-1.6.02-3.23-.1-4.86l-34.42,20.9c-.46-.87-.99-1.69-1.58-2.46l34.11-28.05c-2.68-7.86-8.22-14.04-17.69-14.04s-18.57,6.94-24.26,13.82l-4.24,21.72c-1.24-.12-2.52-.11-3.84.03-1.31.14-2.59.4-3.83.78l-3.37-16.54c-2.44-3.69-7.01-7.53-14.54-7.53-5.76,0-14.94,4.54-19.86,17.46l25.7,15.72c-.59.89-1.12,1.83-1.58,2.79l-26.37-10.45c-.67,3.53-1.07,7.48-1.12,11.92-.02,1.96.09,3.85.31,5.69l25.22-.13c-.07.65-.1,1.3-.1,1.96Zm19.54-17.75c8.63-.91,15.64,5.38,15.64,14.04s-7,16.43-15.64,17.34c-8.63.91-15.64-5.38-15.64-14.04s7-16.43,15.64-17.34Z"/><path class="cls-1" d="m290.46,177.58c8.63-.91,15.64-8.67,15.64-17.34s-7-14.95-15.64-14.04-15.64,8.67-15.64,17.34,7,14.95,15.64,14.04Z"/><path class="cls-1" d="m274.55,152.17l-25.7-15.72c-.91,2.39-1.68,5.07-2.25,8.06l26.37,10.45c.46-.97.99-1.9,1.58-2.79Z"/><path class="cls-1" d="m271.01,165.89c-.07-.64-.1-1.28-.1-1.94s.03-1.31.1-1.96l-25.22.13c.36,3.01,1.02,5.86,1.93,8.57l23.29-4.79Z"/><path class="cls-1" d="m290.46,142.28c1.32-.14,2.59-.14,3.84-.03l4.24-21.72c-3.74,4.52-6.16,9.02-6.7,11.5-1.37,6.25-5.64,3.2-6.4-.61-.25-1.27-.95-3.07-2.16-4.9l3.37,16.54c1.24-.38,2.52-.64,3.83-.78Z"/><path class="cls-1" d="m307.94,151.27l34.42-20.9c-.24-3.28-.85-6.57-1.89-9.61l-34.11,28.05c.59.77,1.12,1.59,1.58,2.46Z"/><path class="cls-1" d="m290.46,181.5c-1.31.14-2.59.14-3.83.03l-5.37,27.52c3.81,3.13,6.75,5.85,7.97,8.32,1.41-4.18,4.98-8.93,9.64-14.21l-4.56-22.44c-1.24.38-2.52.64-3.84.78Z"/><path class="cls-1" d="m310,159.83c0,.66-.03,1.31-.1,1.96l23.93-.12c1.88-3.16,3.53-6.39,4.87-9.71l-28.8,5.93c.06.64.1,1.28.1,1.94Z"/><path class="cls-1" d="m272.97,172.51l-18.48,11.23c1.16,1.63,2.4,3.2,3.69,4.7l16.37-13.47c-.59-.77-1.12-1.59-1.58-2.46Z"/><path class="cls-1" d="m306.36,171.62l13.82,8.45c1.36-1.57,2.71-3.17,4.03-4.79l-16.27-6.45c-.46.97-.99,1.9-1.58,2.79Z"/><path d="m328.12,97.88c-13.42,0-29.29,9.91-38.89,26.38-2.59-5.95-11.83-12.43-22.8-12.43-8.84,0-33.67,11.05-33.67,46.73,0,46.05,46.59,55.51,56.01,69.82.65.99,2.73,1.73,3.53-.62,7.51-22.18,65.79-47.24,65.79-92.37,0-25.31-16.53-37.51-29.95-37.51Zm-82.64,58.55c.05-4.43.45-8.39,1.12-11.92.57-2.99,1.34-5.67,2.25-8.06,4.92-12.92,14.11-17.46,19.86-17.46,7.53,0,12.1,3.84,14.54,7.53,1.21,1.84,1.91,3.63,2.16,4.9.76,3.81,5.03,6.86,6.4.61.54-2.48,2.97-6.97,6.7-11.5,5.68-6.88,14.42-13.82,24.26-13.82s15,6.18,17.69,14.04c1.04,3.04,1.65,6.33,1.89,9.61.12,1.63.15,3.27.1,4.86-.2,5.77-1.57,11.35-3.75,16.73-1.34,3.31-2.99,6.55-4.87,9.71-2.8,4.72-6.1,9.25-9.63,13.6-1.32,1.62-2.66,3.22-4.03,4.79-7.4,8.52-15.28,16.25-21.33,23.09-4.66,5.28-8.23,10.03-9.64,14.21-1.22-2.47-4.16-5.19-7.97-8.32-6.55-5.39-15.68-11.99-23.07-20.61-1.29-1.5-2.53-3.07-3.69-4.7-2.81-3.94-5.17-8.27-6.77-13.05-.91-2.71-1.57-5.56-1.93-8.57-.22-1.84-.33-3.73-.31-5.69Z"/></g></g></g></svg>