<?xml version="1.0" encoding="UTF-8"?><svg id="LOGO_LAYER" xmlns="http://www.w3.org/2000/svg" viewBox="0 0 576.63 280.04"><defs><style>.cls-1{fill:#006234;}.cls-2{fill:#c2272d;}</style></defs><g id="LOGO_GROUP"><g id="SELECT_FLAG_HERE"><g id="BLACK_FLAG"><polygon class="cls-2" points="283.08 175.06 288.37 170.66 285.1 168.63 283.08 175.06"/><polygon class="cls-2" points="288.71 157.15 292.77 156.72 290.74 150.68 288.71 157.15"/><polygon class="cls-2" points="303.1 158.41 296.55 159.1 297.8 162.82 303.1 158.41"/><polygon class="cls-2" points="284.87 160.32 278.28 161.02 283.61 164.33 284.87 160.32"/><polygon class="cls-2" points="293.08 170.21 298.43 173.54 296.38 167.47 293.08 170.21"/><path class="cls-2" d="m322.79,106.72c-16.31,0-29.59,19.06-30.96,25.31-1.37,6.25-5.64,3.2-6.4-.61-.76-3.81-5.42-12.43-16.71-12.43-8.08,0-22.92,8.92-23.23,37.43-.38,34.31,38.35,50.05,43.74,60.94,6.05-17.98,52.01-46.46,53.24-82.14.45-13.11-4.73-28.52-19.67-28.52Zm-19.16,73.42l-12.87-8-13,10.81,4.96-15.8-12.9-8.02,15.95-1.68,4.94-15.72,4.94,14.68,16.04-1.69-12.98,10.79,4.92,14.62Z"/><polygon class="cls-2" points="290.69 168.73 295.47 164.75 293.67 159.4 287.81 160.02 285.99 165.81 290.69 168.73"/><path class="cls-1" d="m295.65,156.42l-4.94-14.68-4.94,15.72-15.95,1.68,12.9,8.02-4.96,15.8,13-10.81,12.87,8-4.92-14.62,12.98-10.79-16.04,1.69Zm-12.57,18.64l2.02-6.43,3.27,2.03-5.29,4.4Zm1.79-14.74l-1.26,4.01-5.33-3.31,6.59-.69Zm3.83-3.17l2.03-6.47,2.03,6.04-4.06.43Zm4.96,2.25l1.8,5.36-4.78,3.98-4.7-2.92,1.82-5.79,5.86-.62Zm9.43-.99l-5.3,4.41-1.25-3.72,6.55-.69Zm-10.02,11.81l3.3-2.75,2.04,6.07-5.35-3.32Z"/><path d="m328.12,97.88c-13.42,0-29.29,9.91-38.89,26.38-2.59-5.95-11.83-12.43-22.8-12.43-8.84,0-33.67,11.05-33.67,46.73,0,46.05,46.59,55.51,56.01,69.82.65.99,2.73,1.73,3.53-.62,7.51-22.18,65.79-47.24,65.79-92.37,0-25.31-16.53-37.51-29.95-37.51Zm14.33,37.36c-1.22,35.68-47.19,64.15-53.24,82.14-5.39-10.89-44.12-26.63-43.74-60.94.32-28.51,15.16-37.43,23.23-37.43,11.28,0,15.94,8.61,16.71,12.43.76,3.81,5.03,6.86,6.4.61,1.37-6.25,14.65-25.31,30.96-25.31,14.94,0,20.12,15.41,19.67,28.52Z"/></g></g></g></svg>