<?xml version="1.0" encoding="UTF-8"?><svg id="LOGO_LAYER" xmlns="http://www.w3.org/2000/svg" viewBox="0 0 576.63 280.04"><defs><style>.cls-1{fill:#f9f9f9;}.cls-2{fill:#e30a17;}</style></defs><g id="LOGO_GROUP"><g id="SELECT_FLAG_HERE"><g id="BLACK_FLAG"><path class="cls-2" d="m322.79,106.72c-16.31,0-29.59,19.06-30.96,25.31-1.37,6.25-5.64,3.2-6.4-.61-.76-3.81-5.42-12.43-16.71-12.43-8.08,0-22.92,8.92-23.23,37.43-.38,34.31,38.35,50.05,43.74,60.94,6.05-17.98,52.01-46.46,53.24-82.14.45-13.11-4.73-28.52-19.67-28.52Zm-54.54,74.85c-9.08-4.79-11.78-16.52-6.03-26.2,5.74-9.68,17.76-13.64,26.83-8.85,2.43,1.28,4.49,3.13,6.03,5.4-5.74-5.79-15.58-5.28-21.97,1.14-6.39,6.42-6.92,16.31-1.17,22.09,5.74,5.79,15.58,5.28,21.97-1.14.41-.41.8-.85,1.17-1.3-5.74,9.68-17.76,13.64-26.83,8.85Zm43.22-15.26l-6.72-1.48-4.15,6.15v-7.07l-6.72-1.48,6.72-2.89v-7.07l4.15,5.28,6.72-2.89-4.15,6.15,4.15,5.28Z"/><path class="cls-1" d="m271.94,175.15c-5.74-5.79-5.22-15.68,1.17-22.09,6.39-6.41,16.23-6.92,21.97-1.14-1.54-2.27-3.6-4.12-6.03-5.4-9.08-4.79-21.09-.83-26.83,8.85-5.74,9.68-3.04,21.41,6.03,26.2,9.08,4.79,21.09.83,26.83-8.85-.37.45-.76.88-1.17,1.3-6.39,6.41-16.23,6.92-21.97,1.14Z"/><polygon class="cls-1" points="304.75 157.77 300.6 152.49 300.6 159.55 293.88 162.44 300.6 163.92 300.6 170.98 304.75 164.83 311.47 166.31 307.32 161.03 311.47 154.88 304.75 157.77"/><path d="m328.12,97.88c-13.42,0-29.29,9.91-38.89,26.38-2.59-5.95-11.83-12.43-22.8-12.43-8.84,0-33.67,11.05-33.67,46.73,0,46.05,46.59,55.51,56.01,69.82.65.99,2.73,1.73,3.53-.62,7.51-22.18,65.79-47.24,65.79-92.37,0-25.31-16.53-37.51-29.95-37.51Zm14.33,37.36c-1.22,35.68-47.19,64.15-53.24,82.14-5.39-10.89-44.12-26.63-43.74-60.94.32-28.51,15.16-37.43,23.23-37.43,11.28,0,15.94,8.61,16.71,12.43.76,3.81,5.03,6.86,6.4.61,1.37-6.25,14.65-25.31,30.96-25.31,14.94,0,20.12,15.41,19.67,28.52Z"/></g></g></g></svg>