<?xml version="1.0" encoding="UTF-8"?><svg id="LOGO_LAYER" xmlns="http://www.w3.org/2000/svg" viewBox="0 0 576.63 280.04"><defs><style>.cls-1{fill:#f4c800;}.cls-2{fill:#fff;}.cls-3{fill:#290072;}</style></defs><g id="LOGO_GROUP"><g id="SELECT_FLAG_HERE"><g id="BLACK_FLAG"><path class="cls-3" d="m245.48,156.43c-.38,34.31,38.35,50.05,43.74,60.94,3.16-9.4,17.23-21.67,30.11-36.33l-62.86-56.46c-5.77,5.45-10.81,15.38-10.99,31.85Zm56.18,20.28l1.83,5.46,5.92-.62-4.78,3.99,1.82,5.46-4.79-2.97-4.79,3.98,1.83-5.84-4.79-2.98,5.92-.63,1.82-5.84Zm-11.09-9.97l1.83,5.46,5.92-.62-4.78,3.99,1.82,5.46-4.79-2.97-4.79,3.98,1.83-5.84-4.79-2.98,5.92-.62,1.83-5.84Zm-11.1-9.97l1.83,5.46,5.92-.62-4.78,3.99,1.82,5.46-4.79-2.97-4.79,3.98,1.83-5.84-4.79-2.98,5.92-.62,1.83-5.84Zm-11.1-9.97l1.83,5.46,5.92-.63-4.78,3.99,1.82,5.46-4.79-2.97-4.79,3.98,1.83-5.84-4.79-2.98,5.92-.63,1.82-5.84Zm-3.35-5.14l-4.78,3.99,1.82,5.46-4.79-2.97-4.79,3.98,1.83-5.84-4.79-2.98,5.92-.63,1.82-5.84,1.83,5.46,5.92-.62Z"/><polygon class="cls-2" points="255.45 142.66 249.52 143.28 254.31 146.27 252.49 152.11 257.27 148.13 262.06 151.1 260.24 145.64 265.02 141.65 259.1 142.27 257.27 136.82 255.45 142.66"/><polygon class="cls-2" points="265.41 156.24 263.58 162.09 268.37 158.11 273.16 161.07 271.34 155.62 276.12 151.62 270.2 152.25 268.37 146.79 266.54 152.63 260.62 153.26 265.41 156.24"/><polygon class="cls-2" points="276.51 166.21 274.67 172.06 279.46 168.08 284.25 171.05 282.43 165.59 287.21 161.6 281.29 162.22 279.46 156.76 277.64 162.61 271.72 163.23 276.51 166.21"/><polygon class="cls-2" points="287.6 176.19 285.77 182.03 290.56 178.05 295.35 181.02 293.53 175.56 298.31 171.57 292.39 172.19 290.56 166.74 288.73 172.58 282.81 173.2 287.6 176.19"/><polygon class="cls-2" points="298.7 186.16 296.87 192.01 301.66 188.03 306.44 191 304.62 185.54 309.4 181.54 303.48 182.17 301.66 176.71 299.83 182.55 293.91 183.18 298.7 186.16"/><path class="cls-1" d="m322.79,106.72c-16.31,0-29.59,19.06-30.96,25.31-1.37,6.25-5.64,3.2-6.4-.61-.76-3.81-5.42-12.43-16.71-12.43-3.41,0-8.03,1.6-12.24,5.58l62.86,56.46c5.32-6.06,10.44-12.52,14.5-19.36v-51.16c-2.86-2.36-6.5-3.8-11.05-3.8Z"/><path class="cls-3" d="m333.84,110.51v51.16c4.92-8.28,8.3-17.11,8.62-26.44.31-9.11-2.1-19.33-8.62-24.72Z"/><path d="m328.12,97.88c-13.42,0-29.29,9.91-38.89,26.38-2.59-5.95-11.83-12.43-22.8-12.43-8.84,0-33.67,11.05-33.67,46.73,0,46.05,46.59,55.51,56.01,69.82.65.99,2.73,1.73,3.53-.62,7.51-22.18,65.79-47.24,65.79-92.37,0-25.31-16.53-37.51-29.95-37.51Zm14.33,37.36c-.32,9.33-3.7,18.16-8.62,26.44-4.06,6.84-9.18,13.31-14.5,19.36-12.88,14.66-26.95,26.93-30.11,36.33-5.39-10.89-44.12-26.63-43.74-60.94.18-16.47,5.22-26.4,10.99-31.85,4.22-3.98,8.83-5.58,12.24-5.58,11.28,0,15.94,8.61,16.71,12.43.76,3.81,5.03,6.86,6.4.61,1.37-6.25,14.65-25.31,30.96-25.31,4.55,0,8.19,1.44,11.05,3.8,6.52,5.39,8.93,15.61,8.62,24.72Z"/></g></g></g></svg>