<?xml version="1.0" encoding="UTF-8"?><svg id="LOGO_LAYER" xmlns="http://www.w3.org/2000/svg" viewBox="0 0 576.63 280.04"><defs><style>.cls-1{fill:#f9f9f9;}.cls-2{fill:#eb302e;}.cls-3{fill:#fff;}.cls-4{fill:#124ea2;}</style></defs><g id="LOGO_GROUP"><g id="SELECT_FLAG_HERE"><g id="BLACK_FLAG"><path class="cls-2" d="m284.91,185.4c-3.82,3.24-6.91,4.52-7.04,4.57l-.28.12-.28-.05c-.13-.02-3.22-.61-7.04-2.99-1.56-.97-3.39-2.35-5.2-4.23l-10.45,1.1c11.71,16.32,30.93,26.02,34.6,33.46,3.47-10.31,20.05-24.06,33.8-40.65l-33.07,3.48c-1.76,2.2-3.53,3.92-5.04,5.2Z"/><path class="cls-4" d="m296.3,168.91l-.02.06c-1.73,4.65-4.02,8.35-6.33,11.22l33.07-3.48c9.86-11.88,18.26-25.22,19.34-39.78l-44.49,4.68c.54,6.41,1.09,18.63-1.57,27.3Z"/><path class="cls-4" d="m258.89,173.18l-.02-.06c-2.7-8.2-2.1-20.8-1.55-27.24l-11.15,1.17c-.42,2.86-.66,5.98-.7,9.38-.12,10.88,3.7,19.9,9.14,27.48l10.45-1.1c-2.25-2.34-4.48-5.47-6.17-9.63Z"/><path class="cls-1" d="m322.79,106.72c-16.31,0-29.59,19.06-30.96,25.31-1.37,6.25-5.64,3.2-6.4-.61-.76-3.81-5.42-12.43-16.71-12.43-7.12,0-19.47,6.93-22.53,28.06l11.15-1.17c.2-2.33.39-3.86.42-4.08l.11-.87,39.45-4.44.11.85c.03.22.24,1.82.45,4.28l44.49-4.68c.04-.57.07-1.14.09-1.71.45-13.11-4.73-28.52-19.67-28.52Z"/><path class="cls-2" d="m278.4,188.67c-.16.08-.3.15-.42.21.12-.05.26-.12.42-.21Z"/><path class="cls-2" d="m288.36,180.65c-.78.91-1.56,1.73-2.33,2.47.77-.74,1.55-1.56,2.33-2.47Z"/><path class="cls-2" d="m284.73,184.31c-.76.66-1.49,1.24-2.17,1.75.69-.51,1.42-1.09,2.17-1.75Z"/><path class="cls-2" d="m272.64,187.2c-.7-.36-1.45-.79-2.22-1.29.78.5,1.52.93,2.22,1.29Z"/><path class="cls-2" d="m269.18,185.04c-.79-.58-1.59-1.24-2.39-1.99.8.75,1.6,1.41,2.39,1.99Z"/><path class="cls-2" d="m275.45,188.43c-.51-.19-1.1-.42-1.75-.72.65.29,1.24.53,1.75.72Z"/><path class="cls-2" d="m263.14,178.85c.08-1.49.56-3.88,2.7-5.23,3.85-2.02,5.83.54,5.83.54,0,0,.86-3.65,4.01-4.91-.05.02-.11.03-.16.05v-6.68s-5.04.17-9.88,1.91c.99-2.34.49-3.92,0-5.95,3.21.63,9.88-.22,9.88-.22v-4.86s-3.7.42-7.8,1.77c1.19-2.81,0-6.04,0-6.04,0,0,3.36.56,7.8.11.15-2.29-.84-7.39-.84-7.39,0,0,2.07.31,2.91.22.84-.09,2.91-.87,2.91-.87,0,0-.99,5.31-.84,7.58,4.44-.55,7.8-1.87,7.8-1.87,0,0-1.18,3.5,0,6.04-4.1-.43-7.8-.02-7.8-.02v4.86s6.67-.65,9.88-2c-.49,2.14-.99,3.83,0,5.95-4.84-.64-9.88.32-9.88.32v6.68c-.14-.03-.28-.05-.43-.07,3.38.39,4.28,4.05,4.28,4.05,0,0,1.98-3,5.83-1.85,2.14.87,2.62,3.15,2.69,4.62,1.23-2.02,2.37-4.3,3.33-6.89,3.65-11.91,1.09-31.14,1.09-31.14l-18.86,2.12-18.86,2.12s-2.57,19.81,1.09,30.9c.96,2.37,2.1,4.39,3.33,6.14Z"/><path class="cls-2" d="m291.94,175.75c-.71,1.16-1.46,2.24-2.21,3.22.76-.99,1.5-2.06,2.21-3.22Z"/><path class="cls-2" d="m265.47,181.73c-.77-.83-1.52-1.75-2.25-2.77.73,1.02,1.48,1.94,2.25,2.77Z"/><path class="cls-4" d="m289.34,170.98c-3.85-1.15-5.83,1.85-5.83,1.85,0,0-.9-3.67-4.28-4.05-.01,0-.02,0-.03,0-.21-.02-.44-.03-.67-.02-.06,0-.13,0-.19,0-.24.01-.49.04-.75.08-.36.02-.68.07-1,.14-.1.02-.19.05-.28.07-.22.06-.43.13-.63.21-3.15,1.26-4.01,4.91-4.01,4.91,0,0-1.98-2.55-5.83-.54-2.14,1.35-2.62,3.74-2.7,5.23.02.04.05.07.07.11.73,1.02,1.48,1.94,2.25,2.77.03.03.05.06.08.09.39.41.77.8,1.17,1.17.02.02.05.05.07.07.8.75,1.6,1.41,2.39,1.99.01,0,.02.02.03.03.39.29.79.56,1.17.81.01,0,.02.02.04.02.77.5,1.52.93,2.22,1.29,0,0,.01,0,.02.01.35.18.69.34,1.01.49,0,0,.02,0,.03.01.65.29,1.24.53,1.75.72,0,0,.02,0,.03.01.25.09.48.17.7.24.01,0,.02,0,.04.01.42.13.75.22.99.28.01,0,.02,0,.03,0,.11.03.19.05.25.06.01,0,.02,0,.03,0,.04,0,.07.01.07.01,0,0,.04-.02.07-.03,0,0,.02,0,.03-.01.06-.03.14-.06.25-.11.01,0,.03-.01.04-.02.12-.05.26-.12.42-.21.16-.08.35-.18.55-.29.02,0,.03-.02.05-.03.21-.11.44-.24.68-.38.02-.01.04-.02.05-.03.5-.3,1.08-.66,1.71-1.09.02-.01.04-.03.06-.04.31-.21.64-.45.98-.7.02-.02.04-.03.06-.05.69-.51,1.42-1.09,2.17-1.75.03-.02.05-.05.08-.07.37-.33.75-.67,1.13-1.04.03-.03.06-.05.08-.08.77-.74,1.55-1.56,2.33-2.47.04-.05.08-.09.12-.14.38-.44.76-.91,1.13-1.39.04-.05.08-.1.12-.15.76-.99,1.5-2.06,2.21-3.22.03-.05.06-.1.09-.15-.08-1.47-.56-3.76-2.69-4.62Z"/><path class="cls-1" d="m276.59,168.97c.32-.07.65-.12,1-.14.26-.05.51-.07.75-.08.06,0,.13,0,.19,0,.23,0,.46,0,.67.02.01,0,.02,0,.03,0,.15.02.29.04.43.07v-6.68s5.04-.96,9.88-.32c-.99-2.12-.49-3.81,0-5.95-3.21,1.35-9.88,2-9.88,2v-4.86s3.7-.42,7.8.02c-1.18-2.54,0-6.04,0-6.04,0,0-3.36,1.32-7.8,1.87-.15-2.26.84-7.58.84-7.58,0,0-2.07.78-2.91.87-.84.1-2.91-.22-2.91-.22,0,0,.99,5.09.84,7.39-4.44.45-7.8-.11-7.8-.11,0,0,1.19,3.24,0,6.04,4.1-1.35,7.8-1.77,7.8-1.77v4.86s-6.67.85-9.88.22c.49,2.03.99,3.6,0,5.95,4.84-1.73,9.88-1.91,9.88-1.91v6.68s.11-.03.16-.05c.2-.08.41-.15.63-.21.09-.02.18-.05.28-.07Z"/><path class="cls-3" d="m258.87,173.12l.02.06c1.69,4.16,3.92,7.29,6.17,9.63,1.81,1.89,3.64,3.26,5.2,4.23,3.82,2.38,6.91,2.96,7.04,2.99l.28.05.28-.12c.13-.05,3.22-1.33,7.04-4.57,1.52-1.29,3.28-3,5.04-5.2,2.3-2.88,4.6-6.58,6.33-11.22l.02-.06c2.66-8.67,2.12-20.89,1.57-27.3-.21-2.45-.42-4.06-.45-4.28l-.11-.85-39.45,4.44-.11.87c-.03.22-.22,1.75-.42,4.08-.55,6.44-1.16,19.05,1.55,27.24Zm-.15-31.3l18.86-2.12,18.86-2.12s2.57,19.23-1.09,31.14c-.96,2.58-2.1,4.87-3.33,6.89-.03.05-.06.1-.09.15-.71,1.16-1.46,2.23-2.21,3.22-.04.05-.08.1-.12.15-.38.49-.75.95-1.13,1.39-.04.05-.08.09-.12.14-.78.91-1.56,1.73-2.33,2.47-.03.03-.06.05-.08.08-.38.37-.76.71-1.13,1.04-.03.02-.05.05-.08.07-.76.66-1.49,1.24-2.17,1.75-.02.02-.04.03-.06.05-.34.25-.66.48-.98.7-.02.01-.04.03-.06.04-.63.43-1.21.79-1.71,1.09-.02.01-.04.02-.05.03-.24.14-.47.27-.68.38-.02,0-.03.02-.05.03-.21.11-.39.21-.55.29-.16.08-.3.15-.42.21-.01,0-.03.01-.04.02-.1.05-.19.09-.25.11-.01,0-.02,0-.03.01-.04.02-.07.03-.07.03,0,0-.04,0-.07-.01,0,0-.02,0-.03,0-.06-.01-.15-.03-.25-.06-.01,0-.02,0-.03,0-.23-.06-.57-.15-.99-.28-.01,0-.02,0-.04-.01-.21-.07-.45-.15-.7-.24,0,0-.02,0-.03-.01-.51-.19-1.1-.42-1.75-.72,0,0-.02,0-.03-.01-.32-.15-.66-.31-1.01-.49,0,0-.01,0-.02-.01-.7-.36-1.45-.79-2.22-1.29-.01,0-.02-.02-.04-.02-.38-.25-.78-.52-1.17-.81-.01,0-.02-.02-.03-.03-.79-.58-1.59-1.24-2.39-1.99-.02-.02-.05-.05-.07-.07-.39-.37-.78-.76-1.17-1.17-.03-.03-.05-.06-.08-.09-.77-.83-1.52-1.75-2.25-2.77-.02-.04-.05-.07-.07-.11-1.23-1.74-2.37-3.77-3.33-6.14-3.65-11.08-1.09-30.9-1.09-30.9Z"/><path d="m328.12,97.88c-13.42,0-29.29,9.91-38.89,26.38-2.59-5.95-11.83-12.43-22.8-12.43-8.84,0-33.67,11.05-33.67,46.73,0,46.05,46.59,55.51,56.01,69.82.65.99,2.73,1.73,3.53-.62,7.51-22.18,65.79-47.24,65.79-92.37,0-25.31-16.53-37.51-29.95-37.51Zm14.33,37.36c-.02.57-.05,1.14-.09,1.71-1.08,14.56-9.48,27.9-19.34,39.78-13.75,16.58-30.33,30.34-33.8,40.65-3.68-7.44-22.9-17.14-34.6-33.46-5.44-7.59-9.26-16.6-9.14-27.48.04-3.4.29-6.52.7-9.38,3.06-21.13,15.42-28.06,22.53-28.06,11.28,0,15.94,8.61,16.71,12.43.76,3.81,5.03,6.86,6.4.61,1.37-6.25,14.65-25.31,30.96-25.31,14.94,0,20.12,15.41,19.67,28.52Z"/></g></g></g></svg>