<?xml version="1.0" encoding="UTF-8"?><svg id="LOGO_LAYER" xmlns="http://www.w3.org/2000/svg" viewBox="0 0 576.63 280.04"><defs><style>.cls-1{fill:#023ca7;}.cls-2{fill:#007348;}.cls-3{fill:#fff;}.cls-4{fill:#ffd200;}.cls-5{fill:#b98257;}.cls-6{fill:#cc0b2f;}.cls-7{fill:#13110c;}</style></defs><g id="LOGO_GROUP"><g id="SELECT_FLAG_HERE"><g id="BLACK_FLAG"><path class="cls-1" d="m268.71,118.99c-8.08,0-22.92,8.92-23.23,37.43-.23,20.73,13.82,34.68,26.17,44.88l.19-82.05c-.98-.15-2.01-.26-3.12-.26Z"/><path class="cls-4" d="m289.91,150.2s.08-.02.08-.08c0-.14-.52-.47-1.22-.39-.11.01-.21.05-.29.1v.26c.37,0,1,.16,1.43.11Z"/><path class="cls-4" d="m283.41,175.94c.07-.05.14-.09.2-.12l-.16-.34c-.04.08-.04.13-.01.21.02.06,0,.16-.03.25Z"/><path class="cls-4" d="m291.83,132.03c-1.37,6.25-5.64,3.2-6.4-.61-.69-3.44-4.56-10.76-13.58-12.17l-.19,82.05c8.09,6.68,15.44,11.75,17.57,16.06,2.6-7.72,12.56-17.38,23.17-28.71l.18-79.52c-11.36,5.33-19.68,18.01-20.75,22.89Zm4.34,48.39c-.18.11-.36.23-.55.35-.16-.17-.32-.36-.48-.56-.73-.9-1.44-1.96-1.44-1.96-.05.3.34,1.17.99,2.22.13.21.26.42.41.64-.17.11-.33.22-.49.34-1.21.86-2.34,1.81-2.76,2.63-.42-.73-1.55-1.44-2.76-2.05-.16-.08-.33-.16-.49-.24.15-.25.28-.5.41-.73.65-1.19,1.04-2.14.99-2.43,0,0-.71,1.21-1.44,2.26-.16.23-.32.46-.47.66-.19-.08-.37-.16-.55-.23-1.22-.51-2.21-.83-2.21-.83,2.09-1.05,4.41-6.32,4.79-7.22.13.05.25.09.36.13.6.23.96.44,1.38.92.42-.57.78-.85,1.39-1.21.11-.07.23-.13.36-.21.39.82,2.71,5.59,4.79,6.2,0,0-.99.53-2.21,1.29Zm-11.18-10.17v-11.76c0-.35-.16-.55-.18-.57,0,0,0-.01,0-.01h0s.25-.03.25-.03l6.78-.71,6.78-.72.26-.03h0s0,0,0,0c-.01.02-.18.26-.18.62v6.65h0v5.1c0,.26-.27.89-1.8,1.81-2.53,1.53-4.47,2.33-5.06,3.11-.58-.66-2.53-1.04-5.05-2.04-1.53-.6-1.8-1.18-1.8-1.43Zm21.73-8.2c-.07.15-.29.19-.29.19,0,0,.53.55.54.7,0,.13-.53.39-.87.76-.47.52-.27.68-.37.77-.09.09-.31.14-.31.14,0,0,.05.15.02.21-.05.11-.25.17-.31.3-.22.46-.51,1.06-.78,1.61,0,3.7,0,7.26.02,9.4,0,.35.21.81.21.81-.6-.19-1.7-1.58-1.93-2.13v.28c-.74-.26-1.31-.98-1.66-1.53-.02,0-.05,0-.05,0,0,0,.19.29.1.48-.07.15-.25.26-.44.27.18.11.32.23.37.3.13.21.22.46.22.68,0,.24-.25.6-.25.6-.03-.11-.08-.15-.08-.15,0,0-.67.91-.77,1.03-.08.09-.42.18-.54.09-.02-.02-.04-.03-.06-.04.01.06,0,.11,0,.14-.03.07-.1.13-.19.15,0,0,.22.15.24.24.02.09-1.04.88-1.04.88,0,0-.09-1.25,0-1.3.09-.05.36,0,.36,0-.04-.07-.04-.16,0-.23.02-.05.09-.12.2-.14.04,0,.09,0,.13.01-.17-.13-.34-.28-.49-.49-.14-.19-.15-.42-.31-.63-.53-.68-1.59-1.98-1.83-2.27-.01.09-.03.17-.05.26-.22-.43-1.11-1.1-1.45-1.35.13-.07.26-.14.38-.21.54-.3,1.09-.61,1.59-.92.09-.06.18-.11.26-.17.17.32.59,1.09.78,1.25,0,0-.16.04-.35.06.11.15.98,1.3,1.25,1.75.25.41.43.2.82.16.11-.01.26.03.42.1-.09-.13-.11-.29-.04-.42.09-.19.45-.26.45-.26,0,0-.11-.12-.16-.3-.59-.96-1.22-3.16-1.44-4,.04-.11.06-.23.06-.37v-11.76c0-.15.07-.31.15-.46.19-.32.49-.59.49-.59l-.69.07-.4.04-6.78.71-6.78.71-.4.04-.69.07s.3.2.5.48c.09.13.15.27.15.42v11.76c0,.14.02.26.06.36-.1.41-.29,1.12-.52,1.89.07.2.1.42.06.64.07-.09.59-.34.59-.34,0,0,.1.7-.18,1.26-.22.43-.66.78-.85.92l.05.09c.1-.02.21-.05.27-.08.08-.05.15-.14.25-.17.16-.05.32-.03.4.14.08.17,0,.39-.18.49-.18.1-.35.04-.43-.04-.06-.06-.1-.08-.19-.08l.16.33c.25,0,.41.05.61-.33.27-.5,1.13-1.84,1.25-2.01-.18.02-.35.02-.35.02.19-.2.61-1.06.78-1.42.09.04.17.07.26.11.5.2,1.04.4,1.59.58.13.04.26.09.39.13-.34.32-1.23,1.18-1.45,1.65-.01-.09-.03-.16-.05-.25-.24.35-1.3,1.87-1.83,2.66-.16.23-.17.47-.31.69,0,0,0,0,0,.01l.15.32.85.38-.29,1.37-1.2-.53.21-.98-.06-.13c-.17.18-.34.33-.51.51-.12.12-.46.1-.54.03-.1-.1-.77-.86-.77-.86,0,0-.05.05-.08.16,0,0-.25-.3-.25-.55,0-.22.09-.49.22-.73.05-.09.19-.23.37-.38-.12.01-.23-.01-.3-.11-.11-.15-.05-.32.06-.45.07-.08.17-.1.25-.16.02-.01.04-.04.05-.05-.12.06-.28.11-.48.14-.35.62-.91,1.43-1.63,1.83v-.28c-.23.6-1.33,2.22-1.93,2.54,0,0,.21-.51.21-.86.02-2.24.02-6.03.02-9.91-.13,0-.26,0-.39-.03-.6-.16-1.04-.84-1.04-.84,0,0,.42-.2.58-.16-.23-.08-.48-.5-.48-.5,0,0,.69-.15,1.33.05,0-.17,0-.34,0-.5l-.29-.61c-.1.12-.13.18-.11.3.02.11-.04.31-.21.41-.18.1-.39.04-.47-.13-.08-.17,0-.33.13-.44.08-.07.18-.08.27-.12.05-.02.1-.07.16-.12-.25.01-.59-.02-.86-.19-.47-.31-.67-1.09-.67-1.09,0,0,.56-.04.92.17,0,0-.12-.07-.31-.43-.22-.4-.09-1.15-.09-1.15,0,0,.85.38.99.71.02-.34.24-.81.24-.81,0,0,.17.22.33.53,0-4.65-.02-8.45-.02-8.45,0-.81,1.27-2.69,2.91-3.93,1.12.54,2.32,1.9,2.76,1.97,0,.4-.15.8-.15,1.22v.79c1.03-.06,1.48.38,2.35.77.5.23,1.2.37,1.35.4.34-.28.62-.57.81-.91.56-.95.69-2.1.69-3.21,0-1.72-.78-2.06-1.57-2.26v.96c0,.21.13.37.32.41-.26.07-.49.44-.55.64-.06-.19-.29-.52-.55-.52.18-.08.31-.27.31-.48v-2.65l-.21.02-.34.04c-.22.02-.39.18-.45.38-.09-.11-.16-.31-.16-.56s.06-.45.16-.59c.06.19.23.31.45.28l.34-.04.21-.02v-.55c0-.22-.14-.38-.33-.42.12-.11.33-.19.57-.22.24-.03.45.01.57.1-.19.08-.33.27-.33.49v.55l.21-.02.34-.04c.22-.02.4-.18.45-.38.09.11.16.32.16.56s-.06.45-.16.59c-.06-.19-.24-.31-.45-.28l-.34.04-.21.02v.76c.14-.13.33-.24.6-.27.14-.02.44-.04.61-.21.07-.07.06-.25.27-.41.23-.18.62-.22.88-.25.36-.04,1.03-.08,1.9.25.48.18.99.33,1.42.43.19.04.36.07.51.09-.14.04-.32.11-.45.2-.06.04-.11.08-.14.13,0,0,.52.27.63.53-.38.05-.48.17-.48.17.25.12.26.93.26.93,0,0-.28-.25-.43-.26,0,0,.05.29.05.78,0,.32-.45.82-.45,1.22,0,.95.2,1.86.67,2.57.19.3.47.54.81.74.14-.06.85-.35,1.35-.68.87-.58,1.32-1.11,2.35-1.27v-.79c0-.42-.15-.78-.15-1.19.44-.16,1.65-1.77,2.76-2.55,1.64.89,2.91,2.51,2.91,3.32,0,0-.02,6.32-.02,12.66.09-.19.18-.38.26-.55.06-.13-.03-.31.03-.41.03-.07.18-.13.18-.13,0,0-.11-.18-.1-.31,0-.13.27-.1.37-.77.07-.48-.09-1.02.03-1.1.13-.09.93-.11.93-.11,0,0-.11-.18-.04-.33.07-.14.22-.21.22-.21l-.09-.19.84-.7v1.05l-.22.06s.05.16-.02.3Z"/><path class="cls-6" d="m322.79,106.72c-3.58,0-7.01.92-10.21,2.42l-.18,79.52c14.1-15.06,29.37-33.07,30.06-53.42.45-13.11-4.73-28.52-19.67-28.52Z"/><path class="cls-5" d="m286.48,180.33c.46.09.99.23,1.54.41.67-.86,1.36-1.99,1.93-2.99.61-1.09,1.1-2.92,1.1-2.92.28.65-.32,4.17-1.53,6.48,1,.42,1.89.89,2.32,1.31.43-.51,1.32-1.17,2.32-1.8-1.21-2.06-1.81-5.44-1.53-6.15,0,0,.5,1.74,1.1,2.69.56.88,1.25,1.87,1.92,2.59.55-.3,1.08-.55,1.54-.74-1.77-1.18-3.58-5.15-3.98-6.06-.61.36-.96.64-1.39,1.21-.42-.48-.78-.69-1.38-.92-.39.98-2.2,5.34-3.98,6.9Z"/><path class="cls-5" d="m301.29,171.79c.22-.46.54-1.12.86-1.79v-13.07l-.65.67-.65-.54v14.78s0,.15-.02.36c.19-.17.38-.27.45-.42Z"/><polygon class="cls-5" points="280.63 156.53 281.24 157.03 281.24 154.99 280.63 155.69 280.63 156.53"/><polygon class="cls-5" points="301.39 153.7 300.78 153.17 300.78 154.97 301.39 154.34 301.39 153.7"/><polygon class="cls-5" points="281.46 158.34 281.72 158.56 282.07 158.85 282.07 157.07 281.72 157.43 281.46 157.71 281.46 158.34"/><polygon class="cls-5" points="280.63 159 280.98 158.64 281.24 158.37 281.24 157.73 280.98 157.51 280.63 157.22 280.63 159"/><path class="cls-5" d="m303.66,168.51c-.08.17-.29.29-.29.29,0,0,.07.12,0,.26-.07.16-.21.11-.24.18-.2.4-.4.84-.61,1.26v3.21c0,.47.87,1.49,1.28,1.7v-7.39c-.07.09-.18.14-.18.14,0,0,.12.18.04.34Z"/><polygon class="cls-5" points="282.29 158.83 282.63 158.47 282.9 158.19 282.9 157.55 282.29 157.04 282.29 158.83"/><path class="cls-5" d="m303.8,155.27l-.53-.44v1.79l.53-.55v-.8Z"/><path class="cls-5" d="m301.64,173.1c-.11.22-.25.33-.39.39.41.37.9.82.9.82v-3.04c-.13.27-.25.52-.35.73-.12.25.09.6-.16,1.11Z"/><path class="cls-5" d="m280.41,155.4l-.35-.6c-.11.23-.18.43-.18.59v1.7l.53-.55v-1.15Z"/><path class="cls-5" d="m280.41,157.24l-.53.55v.8l.53.44v-1.79Z"/><path class="cls-5" d="m303.27,154.13l.53.44v-1.7c0-.16-.07-.35-.18-.56l-.35.67v1.15Z"/><polygon class="cls-5" points="282.07 155.67 281.46 154.8 281.46 157.01 282.07 156.38 282.07 155.67"/><polygon class="cls-5" points="302.22 155.52 301.96 155.3 301.61 155 301.61 156.79 301.96 156.43 302.22 156.15 302.22 155.52"/><polygon class="cls-5" points="302.44 156.13 302.7 156.35 303.05 156.64 303.05 154.85 302.7 155.22 302.44 155.49 302.44 156.13"/><polygon class="cls-5" points="282.29 155.71 282.29 156.35 282.9 156.86 282.9 155.06 282.29 155.71"/><path class="cls-5" d="m300.56,155.73c-.21-.1-.42-.32-.61-.55v1.79l.35-.37.26-.28v-.6Z"/><polygon class="cls-5" points="300.78 156.3 301.05 156.53 301.39 156.81 301.39 155.03 300.78 155.67 300.78 156.3"/><polygon class="cls-5" points="302.22 152.61 301.61 153.6 301.61 154.31 302.22 154.82 302.22 152.61"/><path class="cls-5" d="m300.45,152.73v-.19c0-.18-.11-.3-.18-.36l.22-.11c.09.09.18.22.18.41v.11l.07.07.04.04.56.54.66-1.07v-.24c0-.16-.13-.34-.23-.45l.22-.1c.11.13.23.31.23.5v.2c.15.14.76.7.76.7,0,0,.3-.68.38-.87-.46-.59-1.21-1.23-1.91-1.67h0s-1.52,1.57-2.04,1.8l-.02.48v1.39c.37-.17.84-.83,1.07-1.18Z"/><path class="cls-5" d="m282.24,152.28h0c-.7.58-1.45,1.38-1.91,2.07.08.17.38.79.38.79,0,0,.6-.68.76-.86v-.2c0-.18.12-.39.23-.54l.22.06c-.1.13-.23.33-.23.5v.24l.66.93.56-.66.04-.05.07-.08v-.11c0-.19.09-.35.18-.45l.22.06c-.08.08-.18.22-.18.4v.19c.23.3.69.87,1.07.95v-1.39l-.02-.47c-.51-.13-2.04-1.37-2.04-1.37Z"/><path class="cls-5" d="m283.11,154.94v1.95c.4-.26.77-.79.91-1.01-.4-.15-.82-.8-.91-.94Z"/><path class="cls-5" d="m283.11,157.57v.6l.26.22.35.29v-1.79c-.19.27-.4.53-.61.68Z"/><path class="cls-5" d="m293.39,152.68c0-.52.44-.92.44-1.22,0-.6-.12-1.13-.12-1.13l.49.1c0-.23-.19-.46-.38-.45.06-.21.4-.28.4-.28-.16-.28-.52-.31-.52-.31.02-.08.11-.19.22-.3-.17-.04-.37-.1-.58-.17-.8-.27-1.4-.6-2.25-.51-.07,0-.14.01-.22.02-.08,0-.17.02-.25.03-.29.04-.58.11-.69.27-.06.08-.11.14-.05.23.03.05.26.02.47,0,.31-.03.59.2.87.17.22-.02.44-.1.67-.13.69-.07,1.14.55,1.42.7-.25.05-.98-.54-1.33-.5-.29.03-.4.11-.68.14-.03,0-.05,0-.08,0,.16.05.28.17.28.32,0,.23-.25.44-.55.48-.1.01-.18,0-.26-.03,0,.02-.02.04-.02.05,0,.09.07.18.12.2.27.16.29.48.29.48,0,0-.52-.35-.75-.33-.44.05-.37.35-.31.46.19.33.3.82.3,1.57,0,1.98-.39,2.72-.71,3.3-.11.2-.2.44-.39.63.83-.53,1.45-1.15,1.45-1.67v-1.95l.22-.02v1.96c0,.37-.09.56-.09.56-.13.43-.39,1.1-.56,1.37.77-.5,1.15-1.05,1.15-1.25v-2.69l.22-.02v2.72l-.04.19c.09.13.21.28.29.33.08-.07.2-.24.3-.39l-.04-.18v-2.72l.22-.02v2.69c0,.19.39.67,1.15,1.01-.16-.24-.43-.85-.56-1.25,0,0-.09-.16-.09-.54v-1.95l.22-.02v1.95c0,.52.62,1.01,1.45,1.36-.19-.15-.28-.37-.39-.55-.29-.47-.7-1.05-.7-2.66Z"/><polygon class="cls-5" points="303.05 153.33 302.44 152.75 302.44 154.8 303.05 154.16 303.05 153.33"/><path class="cls-5" d="m289.96,149.31c0,.21.22.33.45.41.03-.21.25-.39.53-.42-.27-.06-.53-.19-.72-.17-.2.02-.26.09-.26.18Z"/><path class="cls-5" d="m300.56,155.04v-1.95c-.09.16-.51.9-.91,1.13.14.19.51.64.91.81Z"/><path class="cls-5" d="m281.76,168.87c.04.08.04.16.01.24.22-.25.45-.44.45-.44,0,0,.32.64.25.88.06-.1.23-.25.35-.35v-10.24l-.65.67-.65-.54v9.62c.09,0,.18.05.23.15Z"/><path class="cls-5" d="m282.24,171.79l.07.15c.1-.02.21-.05.27-.08.08-.05.15-.14.24-.17v-.52c-.18.31-.42.51-.59.62Z"/><path class="cls-5" d="m282.43,172.2l.39.81v-.64c-.09,0-.16-.05-.2-.09-.06-.06-.1-.08-.19-.08Z"/><path class="cls-5" d="m280.21,165.8s0,0,0,0c0,0,.31.36.32.82.08-.25.46-.56.46-.56,0,0,.08.2.17.48v-7.38l-.65.67-.64-.53v6.32c.13-.02.25,0,.32.15,0,.01,0,.03.01.05Z"/><path class="cls-5" d="m279.95,169.53c.08-.07.18-.08.27-.12.07-.04.16-.12.24-.21l-.25-.52c-.08.03-.19.07-.32.11v.82s.04-.05.07-.07Z"/><path class="cls-5" d="m281.65,172.52c.08-.04.19-.15.27-.25l-.15-.31c-.07.02-.15.05-.24.08v.53s.08-.02.12-.04Z"/><path class="cls-5" d="m280.76,168.7l.13.27c.09-.02.17-.04.22-.07.02-.01.03-.03.05-.04v-.73c-.12.26-.29.46-.4.57Z"/><path class="cls-5" d="m296.32,172.73s.11-.47.17-.64c0,0,.3.2.47.19,0,0,.05-.32.09-.53.21.12.56.05.56.05-.22-.08-.48-.56-.6-.81-.5.31-1.04.62-1.59.92.25.25.71.72.89.82Z"/><path class="cls-5" d="m281.16,169.32s0,0,0,0c-.04-.05-.08-.06-.13-.07l.14.29v-.22Z"/><path class="cls-5" d="m286.07,173.01s.35,0,.56-.17c.04.2.09.51.09.51.17-.02.47-.29.47-.29.06.16.17.61.17.61.18-.14.64-.7.89-1.01-.54-.19-1.09-.38-1.59-.58-.12.28-.37.8-.59.93Z"/><path class="cls-5" d="m303.8,156.76l-.64.67-.65-.53v12.35c.03-.07.07-.14.1-.2.03-.07-.09-.13-.02-.29.07-.15.21-.18.21-.18,0,0-.05-.21.04-.39.08-.16.3-.2.3-.2,0,0-.05-.16.01-.29.06-.13.19-.18.24-.28.12-.25.26-.54.41-.84v-9.81Z"/><path class="cls-5" d="m281.53,169.38v.06s.04-.06.05-.08c-.02.01-.04.01-.05.02Z"/><path class="cls-5" d="m281.53,176.48s.43-.48.82-.92c-.28-.02-.56-.11-.82-.23v1.15Z"/><path class="cls-5" d="m284.78,156.09c.1.25.34.84.5.87.14-.31.97-.8.97-.8-.32-.12-.62-.2-.86-.17-.27.03-.47.07-.62.1Z"/><path class="cls-5" d="m298.4,155.58c.16-.06.4-.71.5-.98-.14,0-.35,0-.62.03-.24.03-.54.17-.86.36,0,0,.83.32.98.59Z"/><path class="cls-5" d="m297.42,154.99c-.35.2-.71.45-1.04.63,0,0,.56.03.79.22.19-.06.25-.85.25-.85Z"/><path class="cls-5" d="m300.49,157.11l-.64.67-.79-.65v11.2c.22.91.79,3.08,1.43,3.57v-14.78Z"/><path class="cls-5" d="m299.74,154.9c-.12-.17-.21-.32-.28-.43-.14.26-.59,1.05-1.12,1.57-.08-.35-.66-.62-.66-.62,0,0-.2.58-.52.75-.11-.18-.77-.55-.77-.55-.42.23-1.06.34-1.24.37.21.13.45.24.7.34,0,0-1,.09-1.7-.18-.25-.13-.51-.27-.73-.43.09.26.24.56.48.8-1.03.02-1.54-.52-1.68-.7-.07.18-.19.48-.38.74-.19-.22-.31-.5-.38-.66-.14.21-.65.85-1.68,1.05.23-.3.38-.63.48-.9-.22.21-.48.4-.73.59-.7.42-1.69.54-1.69.54.25-.15.48-.31.69-.49-.18.01-.81.04-1.23-.1,0,0-.66.5-.77.71-.31-.1-.52-.64-.52-.64,0,0-.57.4-.66.76-.53-.4-.98-1.1-1.12-1.33-.07.12-.15.28-.28.49v2.09l.52-.54c-.19-.28-.5-.48-.5-.48l.69-.07.4-.04,6.78-.71,6.78-.71.4-.04.69-.07s-.3.26-.49.59l.52.43v-2.09Z"/><path class="cls-5" d="m280.76,170.59c.14.04.28.11.4.19v-.09l-.59-1.24c-.07.09-.09.14-.07.24.02.11-.04.31-.21.41-.14.08-.31.06-.41-.05v.58c.2-.06.55-.13.88-.04Z"/><path class="cls-5" d="m286.5,156.96c.23-.24.79-.38.79-.38-.33-.11-.69-.29-1.04-.41,0,0,.05.78.25.8Z"/><path class="cls-5" d="m282.79,174.09l-.75-1.57c-.09.11-.12.17-.1.28.02.11-.04.31-.21.41-.06.04-.13.04-.19.04v.52c.24.02.51.05.74.11.2.05.37.13.52.21Z"/><path class="cls-5" d="m279.88,170.92v.66c.16-.1.36-.21.49-.2-.16-.04-.36-.28-.49-.46Z"/><path class="cls-5" d="m281.16,174.71v-.29c-.23-.27-.44-.67-.44-.67,0,0,.18,0,.44,0v-1.63c-.14.03-.29.05-.43.06-.35.02-.65-.13-.85-.25v6.01c.42-.3,1.28-1.5,1.28-1.97v-.83c-.24-.14-.4-.27-.4-.27,0,0,.2-.09.4-.16Z"/><path class="cls-5" d="m283.19,158.93v12.85s.03.03.04.05c.05.11.03.25-.04.36v.65c.21-.5.64-.94.64-.94,0,0,.07.09.15.24.29-.83.51-1.75.64-2.29v-11.21l-.78.82-.64-.53Z"/><path class="cls-4" d="m288.37,150.01v-.1c-.16.12-.25.25-.25.25v1.12c0,.17-.09.32-.2.44.08.04.15.1.22.17.05.06.08.12.11.19.04-.07.06-.14.11-.21.06-.08.13-.15.21-.21-.12-.09-.2-.22-.2-.4v-1.24Z"/><path class="cls-4" d="m288.37,148.81v-.32h.09s.02-.02.02-.02l.21-.02.34-.04c.18-.02.33.05.44.16.03-.1.06-.2.06-.33s-.02-.23-.05-.32c-.11.14-.26.23-.44.25l-.34.04-.21.02s-.02,0-.02,0h-.09s0-.08,0-.08c0,0,0-.01,0-.02v-.55c0-.18.08-.34.2-.46-.09-.02-.2-.04-.33-.02-.13.01-.23.05-.33.09.12.09.2.24.2.42v.55s0,.02,0,.02v.09h-.09s-.02.01-.02.01h-.05s-.16.02-.16.02l-.34.04c-.18.02-.33-.05-.44-.16-.03.1-.06.21-.06.33s.02.23.05.32c.11-.14.26-.24.44-.25l.34-.04h.07s.14-.02.14-.02h.11s0,.01,0,.02v.06s0,.02,0,.02v1.54s.01-.39.25-.7v-.65Z"/><path class="cls-6" d="m283.81,176.92s-.1-.06-.15-.05c-.03,0-.06.02-.09.05l-.52.5c-.07.07-.07.18,0,.24.06.07.17.07.24,0l.52-.51c.07-.06.07-.17,0-.23Z"/><path class="cls-6" d="m284.28,177.5s-.06.02-.09.04l-.52.51c-.07.07-.07.17,0,.24.06.07.17.07.23,0l.52-.51c.07-.07.07-.17,0-.24-.04-.04-.09-.06-.15-.05Z"/><path class="cls-6" d="m283.49,176.73s-.03-.02-.05-.02c-.02,0-.04,0-.05.02l-.21.21s-.03.07,0,.1c.03.03.07.03.1,0l.21-.21s.03-.07,0-.1Z"/><path class="cls-6" d="m284.11,177.24s-.1-.06-.15-.04c-.03,0-.06.02-.09.04l-.52.51c-.07.06-.07.17,0,.24.06.07.17.07.24,0l.52-.51c.07-.07.07-.17,0-.24Z"/><path class="cls-6" d="m282.99,176.61c-.03.08.04.19.11.19.12,0,.23-.19.63-.35.37-.15.64-.06.96-.33-.02.31-.43.59-.43.8.27-.03.43-.22.43-.22,0,0-.02.21-.02.39s.21.26.21.26c0,0,.12-.5.26-.71.57-.83,1.73-2.54,1.93-2.84-.04-.21-.07-.36-.07-.36l-.47.37c-.13-.13-.13-.56-.13-.56-.04.03-.09.05-.15.07-.09.14-.96,1.59-1.5,2.49-.13.21-.78.12-.87.15-.34.1-.84.53-.89.66Z"/><path class="cls-6" d="m299.81,175.56s-.05-.03-.09-.03c-.01,0-.03,0-.04,0-.04.01-.08.04-.11.07-.06.08-.06.19,0,.24l.52.4c.07.05.17.03.23-.05.06-.08.06-.19,0-.24l-.52-.4Z"/><path class="cls-6" d="m300.11,175.17s-.06-.03-.09-.03c-.01,0-.03,0-.04,0-.04.01-.08.04-.11.08-.06.08-.06.18,0,.23l.52.4c.07.05.18.03.24-.05.06-.08.06-.19,0-.24l-.52-.4Z"/><path class="cls-6" d="m299.8,174.26c-.08,0-.73.22-.87.03-.54-.78-1.42-2.05-1.5-2.17-.05,0-.11-.02-.15-.04,0,0,0,.43-.13.59l-.47-.28s-.03.16-.07.38c.2.26,1.36,1.72,1.93,2.43.14.18.26.65.26.65,0,0,.21-.12.21-.3s-.02-.38-.02-.38c0,0,.16.16.43.14,0-.22-.42-.41-.43-.71.32.2.6.05.96.12.4.08.51.24.64.22.07-.01.14-.14.11-.22-.05-.13-.54-.44-.89-.47Z"/><path class="cls-6" d="m300.51,175.21s.02-.08,0-.1l-.21-.16s-.03-.01-.05-.01c-.02,0-.04.02-.05.03-.03.03-.02.08,0,.1l.21.17s.07.01.1-.02Z"/><path class="cls-6" d="m299.48,175.93s-.06-.03-.09-.02c-.01,0-.03,0-.04,0-.04.01-.08.04-.11.07-.06.08-.06.19,0,.24l.51.4c.07.05.17.03.23-.05.06-.08.06-.18,0-.23l-.52-.4Z"/><polygon class="cls-4" points="284.92 178.33 284.79 178.93 285.54 179.26 285.72 178.41 285.19 178.18 284.97 178.08 284.92 178.33"/><path class="cls-1" d="m291.84,173.73c.58-.78,2.53-1.57,5.06-3.11,1.53-.93,1.8-1.56,1.8-1.81v-5.1s-1.23.69-2.16,1.49c-.43-.57-2.07-1.13-2.08-1.13h0s.6,1.03.6,1.03c0,0-1.01.16-1.55.67-.65.63-.58,1.79-.58,2.65,0,.67.08,1.38.43,1.63.46.35.78.34.78.8,0,.38-.29.49-.78.8-.61.39-.59.82-1.5.92-.91.1-.88-.34-1.5-.61-.48-.2-.78-.25-.78-.63,0-.46.31-.52.78-.97.34-.33.43-1.05.43-1.72,0-.86.06-2.03-.59-2.52-.54-.4-1.55-.35-1.55-.35l.6-1.15s-1.65.9-2.08,1.57c-.94-.61-2.17-1.04-2.17-1.04v5.11c0,.26.26.83,1.8,1.43,2.53,1,4.47,1.38,5.05,2.04Zm4.17-6.27c.64-.07,1.24.23,1.55.71-.13-.02-.27-.02-.41,0-.89.09-1.54.85-1.45,1.69.02.23.1.45.23.63-.71-.09-1.29-.63-1.37-1.33-.09-.84.56-1.6,1.45-1.69Zm-2.17-1.71l.59.53-.59.65-.59-.53.59-.65Zm.22,4.56s-.83-.16-1-.98c-.08-.39-.16-1.84.24-2.13l1.08-.33c-.12.3-.39,1.23-.39,2.31,0,.74.07,1.13.07,1.13Zm-3.43-.73c-.16.86-.99,1.2-.99,1.2,0,0,.07-.4.07-1.15,0-1.08-.28-1.95-.39-2.22l1.08.1c.4.21.31,1.68.24,2.08Zm-.77-3.42l.59.53-.59.65-.59-.53.59-.65Zm-3.32,4.3c.02-.06.05-.11.08-.16-.05.02-.11.02-.17.03-.38.02-.67-.29-.65-.67.02-.36.32-.67.67-.72.02,0,.05,0,.07,0,.06,0,.12,0,.17.02-.03-.05-.05-.1-.06-.15-.09-.37.13-.77.5-.9.05-.02.09-.03.14-.04.32-.05.62.14.71.46.01.05.02.11.02.17.04-.05.08-.08.13-.12.1-.07.21-.12.33-.14.25-.04.49.05.63.26.21.3.1.75-.22.99-.05.04-.1.07-.16.09.05.02.1.04.14.08.29.22.33.65.09.97-.25.32-.69.41-.98.19-.05-.03-.08-.07-.12-.11,0,.06-.02.11-.04.17-.14.38-.55.6-.91.49-.36-.1-.53-.5-.39-.87Z"/><path class="cls-6" d="m289.23,164.62l.1-.2s-2.45-.36-2.45-2.98c0-2.05,2.45-3.33,2.52-3.83.24.82-.82,2.1-.82,3.49,0,1.79,1.32,1.74,1.32,1.74.31-.03.43.18.56.16.26-.06.38-.4.64-.43.24-.03.42.33.74.3.32-.03.5-.43.74-.45.26-.03.38.29.64.29.12-.01.25-.25.55-.28,0,0,1.32-.22,1.32-2.02,0-1.39-1.06-2.44-.82-3.32.07.48,2.52,1.24,2.52,3.29,0,2.63-2.45,3.5-2.45,3.5l.1.18s1.51-.53,2.08-1.34c.98.78,2.15.97,2.16.97v-6.65c0-.36.17-.6.18-.62h0s-.26.02-.26.02l-6.78.72-6.78.71-.25.03h0s.18.23.18.59v6.65s1.18-.43,2.17-1.43c.56.69,2.08.9,2.08.9Zm1.02-6.26l1.16.43.42-1.25.43,1.16,1.16-.67-.55,1.22,1.21.3-1.21.56.55,1.1-1.16-.43-.43,1.26-.42-1.17-1.16.67.55-1.21-1.21-.3,1.21-.56-.55-1.11Z"/><polygon class="cls-6" points="294.45 164.07 294.45 164.07 294.45 164.07 294.45 164.07"/><path class="cls-4" d="m296.42,160.43c0-1.52-1.8-2.62-1.8-2.62-.1.23.82,1.47.82,2.57,0,1.35-.72,2.22-1.67,2.32-.18.02-.38.29-.55.31-.28.03-.47-.26-.64-.24-.22.02-.37.38-.74.42-.38.04-.52-.29-.74-.27-.17.02-.36.35-.64.38-.17.02-.37-.21-.56-.19-.96.1-1.67-.62-1.67-1.97,0-1.1.92-2.54.82-2.75,0,0-1.8,1.48-1.8,3,0,2.45,2.48,2.8,2.48,2.8l-.56,1.32s.77.03,1.24.37c.63.44.63,1.81.63,2.73,0,1.09-.04,1.55-.43,1.89-.41.36-.72.46-.72.77,0,.28.32.36.74.5.48.16.52.52,1.21.45.69-.07.74-.44,1.21-.7.42-.23.74-.38.74-.65,0-.32-.31-.35-.72-.62-.39-.26-.43-.71-.43-1.8,0-.92,0-2.3.63-2.87.47-.43,1.24-.63,1.24-.63l-.56-1.2s2.48-.87,2.48-3.32Zm-5.52,11.06c-.49.05-.8-.02-.8-.16s.31-.28.8-.34c.13-.01.28.05.28.22s-.15.26-.28.28Zm1.88-.7c.49-.05.8.02.8.17s-.31.28-.8.33c-.13.01-.28-.05-.28-.22s.15-.27.28-.28Z"/><path class="cls-4" d="m287.15,165.83c.44-.56,1.27-1.08,1.27-1.08,0,0-.79-.14-1.29-.66-.53.6-1.42,1-1.42,1,0,0,.93.37,1.4.74v.05s.02-.02.03-.03c0,0,.01,0,.02.01v-.03Z"/><path class="cls-4" d="m295.26,164.03s.82.35,1.27.81v.03s0-.01.02-.01c0,0,.02.02.03.03v-.05c.47-.46,1.4-1.03,1.4-1.03,0,0-.9-.22-1.42-.7-.5.63-1.29.93-1.29.93Z"/><polygon class="cls-4" points="291.18 160.14 290.83 160.91 291.56 160.48 291.84 161.23 292.12 160.42 292.85 160.7 292.5 160 293.27 159.64 292.5 159.45 292.85 158.67 292.12 159.1 291.84 158.36 291.56 159.16 290.83 158.88 291.18 159.59 290.41 159.94 291.18 160.14"/><polygon class="cls-4" points="290.16 166.73 289.85 166.46 289.54 166.8 289.85 167.08 290.16 166.73"/><polygon class="cls-4" points="294.14 166.31 293.83 166.04 293.52 166.37 293.83 166.66 294.14 166.31"/><path class="cls-4" d="m293.41,167.43c-.22.32-.18.8-.18,1.47s.5.88.5.88c0-1.62.17-2.03.26-2.53l-.58.18Z"/><path class="cls-4" d="m289.68,167.7c.09.48.26.85.26,2.48,0,0,.5-.31.5-.99s.04-1.15-.18-1.43l-.58-.06Z"/><path class="cls-4" d="m295.38,169.91c-.09-.89.53-1.73,1.4-1.99-.23-.12-.5-.18-.78-.15-.73.08-1.21.64-1.14,1.3.04.34.24.63.52.83Z"/><path class="cls-4" d="m287.06,169.65c0,.29.23.5.52.47.29-.03.52-.29.52-.58s-.23-.5-.52-.47c-.29.03-.52.29-.52.58Z"/><path class="cls-4" d="m286.9,170.07c-.07-.11-.1-.24-.1-.39,0-.18.06-.36.17-.51-.04-.03-.08-.04-.12-.06-.06-.02-.11-.03-.17-.03-.3.01-.56.27-.58.57-.02.3.21.54.5.53.06,0,.11-.01.16-.03.05-.02.1-.05.15-.08Z"/><path class="cls-4" d="m288.52,169.62c-.05-.01-.1-.02-.15-.02-.03.33-.26.62-.57.75.01.04.03.09.05.12.03.05.07.1.11.13.23.17.57.1.76-.15.19-.25.17-.59-.06-.76-.05-.03-.1-.05-.15-.07Z"/><path class="cls-4" d="m287.73,170.68c.02-.06.03-.12.03-.17,0-.05,0-.1-.02-.15-.05.02-.11.03-.17.04-.27.03-.52-.08-.66-.28-.04.03-.08.07-.12.11-.04.05-.07.1-.09.16-.11.29.03.59.3.68.28.08.59-.08.71-.37Z"/><path class="cls-4" d="m286.9,169.03s.06.07.1.1c.14-.18.35-.3.59-.33.09-.01.18,0,.27.01.02-.04.03-.09.03-.14,0-.06,0-.12-.01-.18-.06-.24-.3-.39-.55-.35-.04,0-.07.02-.11.03-.29.1-.47.42-.39.7.01.06.04.11.07.15Z"/><path class="cls-4" d="m288.37,169.52s0,.02,0,.02c.05,0,.1,0,.14-.02.06-.02.11-.05.17-.08.25-.19.33-.53.17-.77-.1-.15-.27-.22-.44-.21-.11,0-.21.05-.31.12-.05.04-.09.08-.13.13-.03.05-.06.09-.08.14.28.1.47.36.47.68Z"/><path class="cls-7" d="m295.92,170.48c-.12-.19-.2-.4-.23-.63-.09-.84.56-1.59,1.45-1.69.14-.01.28-.01.41,0-.31-.48-.91-.78-1.55-.71-.89.09-1.54.85-1.45,1.69.08.7.65,1.24,1.37,1.33Zm.09-2.71c.28-.03.55.03.78.15-.87.26-1.5,1.1-1.4,1.99-.28-.2-.48-.49-.52-.83-.07-.66.41-1.23,1.14-1.3Z"/><path class="cls-7" d="m289.31,167.41c.11.28.39,1.15.39,2.22,0,.74-.07,1.15-.07,1.15,0,0,.83-.33.99-1.2.08-.4.16-1.87-.24-2.08l-1.08-.1Zm1.14,1.77c0,.67-.5.99-.5.99,0-1.62-.17-1.99-.26-2.48l.58.06c.22.27.18.76.18,1.43Z"/><path class="cls-7" d="m290.44,166.7l-.59-.53-.59.65.59.53.59-.65Zm-.59-.25l.31.27-.31.35-.31-.28.31-.34Z"/><path class="cls-7" d="m293.29,167.2c-.4.29-.31,1.74-.24,2.13.16.83,1,.98,1,.98,0,0-.07-.39-.07-1.13,0-1.08.28-2.01.39-2.31l-1.08.33Zm.45,2.57s-.5-.21-.5-.88-.04-1.15.18-1.47l.58-.18c-.09.5-.26.91-.26,2.53Z"/><path class="cls-7" d="m289.23,164.62s-1.51-.21-2.08-.9c-.99,1-2.17,1.43-2.17,1.43,0,0,1.23.43,2.17,1.04.43-.66,2.08-1.57,2.08-1.57Zm-2.12,1.26v-.05c-.47-.37-1.4-.74-1.4-.74,0,0,.9-.41,1.42-1,.5.52,1.29.66,1.29.66,0,0-.83.52-1.27,1.08v.03s-.01,0-.02-.01c0,.01-.02.02-.03.03Z"/><path class="cls-7" d="m287.82,170.85c.02-.06.03-.11.04-.17.03.04.07.08.12.11.29.22.74.13.98-.19.25-.32.21-.76-.09-.97-.05-.03-.09-.06-.14-.08.05-.02.1-.05.16-.09.33-.24.43-.69.22-.99-.14-.21-.39-.3-.63-.26-.11.02-.22.07-.33.14-.05.04-.09.08-.13.12,0-.06,0-.11-.02-.17-.08-.32-.38-.5-.71-.46-.05,0-.09.02-.14.04-.37.13-.6.54-.5.9.02.06.04.1.06.15-.05-.01-.11-.02-.17-.02-.02,0-.05,0-.07,0-.35.05-.65.36-.67.72-.02.39.27.69.65.67.06,0,.11-.01.17-.03-.03.05-.06.1-.08.16-.14.37.03.77.39.87.36.11.76-.11.91-.49Zm.91-.41c-.19.25-.53.32-.76.15-.05-.04-.08-.08-.11-.13-.02-.04-.04-.08-.05-.12.31-.12.53-.42.57-.75.05,0,.1,0,.15.02.05.02.1.04.15.07.23.17.26.51.06.76Zm-.76-1.75s.08-.09.13-.13c.1-.07.2-.11.31-.12.17-.01.34.06.44.21.16.23.08.58-.17.77-.05.04-.11.07-.17.08-.05.02-.1.02-.14.02,0,0,0-.01,0-.02,0-.32-.19-.58-.47-.68.02-.05.04-.09.08-.14Zm.13.85c0,.29-.23.55-.52.58-.29.03-.52-.18-.52-.47s.23-.55.52-.58c.29-.03.52.18.52.47Zm-.89-1.37s.07-.02.11-.03c.25-.04.48.11.55.35.02.06.02.12.01.18,0,.05-.02.09-.03.14-.09-.02-.18-.03-.27-.01-.23.02-.44.15-.59.33-.04-.03-.07-.06-.1-.1-.03-.05-.06-.09-.07-.15-.07-.28.1-.6.39-.7Zm-.63,2.01c-.3.01-.52-.23-.5-.53.02-.3.28-.56.58-.57.06,0,.12.01.17.03.04.02.08.04.12.06-.11.15-.17.32-.17.51,0,.15.04.28.1.39-.05.03-.09.06-.15.08-.05.02-.11.03-.16.03Zm.13.19c.02-.06.06-.11.09-.16.03-.04.07-.08.12-.11.14.2.38.31.66.28.06,0,.11-.02.17-.04.01.05.02.1.02.15,0,.06-.01.12-.03.17-.11.29-.43.46-.71.37-.28-.08-.41-.39-.3-.68Z"/><path class="cls-7" d="m294.42,166.28l-.59-.53-.59.65.59.53.59-.65Zm-.59-.25l.31.28-.31.35-.31-.28.31-.34Z"/><path class="cls-7" d="m290.81,160.33l-.55,1.21,1.16-.67.42,1.17.43-1.26,1.16.43-.55-1.1,1.21-.56-1.21-.3.55-1.22-1.16.67-.43-1.16-.42,1.25-1.16-.43.55,1.11-1.21.56,1.21.3Zm.02-1.45l.74.28.28-.8.27.74.74-.43-.35.78.77.19-.77.35.35.7-.74-.28-.28.8-.27-.74-.74.43.35-.78-.77-.19.77-.35-.35-.7Z"/><path class="cls-7" d="m294.45,164.07h0s1.65.56,2.08,1.13c.93-.8,2.15-1.48,2.16-1.49h0s-1.19-.19-2.16-.97c-.57.81-2.08,1.34-2.08,1.34Zm3.52-.27s-.93.57-1.4,1.03v.05s-.02-.02-.03-.03c0,0-.01,0-.02.01v-.03c-.44-.46-1.27-.81-1.27-.81,0,0,.79-.3,1.29-.93.53.48,1.42.7,1.42.7Z"/><path class="cls-7" d="m294.35,163.9s2.45-.88,2.45-3.5c0-2.05-2.45-2.81-2.52-3.29-.24.87.82,1.93.82,3.32,0,1.79-1.32,2.02-1.32,2.02-.31.03-.43.27-.55.28-.26,0-.38-.32-.64-.29-.24.02-.43.42-.74.45-.32.03-.5-.32-.74-.3-.26.03-.38.37-.64.43-.12.01-.25-.19-.56-.16,0,0-1.32.05-1.32-1.74,0-1.39,1.06-2.67.82-3.49-.07.5-2.52,1.77-2.52,3.83,0,2.62,2.45,2.98,2.45,2.98l-.1.2-.6,1.15s1.01-.06,1.55.35c.65.49.59,1.67.59,2.52,0,.67-.09,1.39-.43,1.72-.46.44-.78.51-.78.97,0,.38.3.43.78.63.61.26.59.7,1.5.61.91-.1.89-.53,1.5-.92.48-.3.78-.41.78-.8,0-.46-.31-.46-.78-.8-.34-.26-.43-.96-.43-1.63,0-.86-.06-2.02.58-2.65.54-.52,1.55-.67,1.55-.67l-.6-1.03h0s-.1-.18-.1-.18Zm.16,1.06s-.77.2-1.24.63c-.63.57-.63,1.94-.63,2.87,0,1.09.04,1.55.43,1.8.41.27.72.3.72.62,0,.28-.32.43-.74.65-.48.26-.52.63-1.21.7-.69.07-.73-.29-1.21-.45-.42-.14-.74-.22-.74-.5,0-.32.31-.42.72-.77.39-.34.43-.8.43-1.89,0-.93,0-2.3-.63-2.73-.47-.33-1.24-.37-1.24-.37l.56-1.32s-2.48-.35-2.48-2.8c0-1.52,1.8-3,1.8-3,.1.21-.82,1.65-.82,2.75,0,1.35.72,2.07,1.67,1.97.18-.02.38.21.56.19.28-.03.47-.36.64-.38.22-.02.36.3.74.27.38-.04.53-.4.74-.42.17-.02.36.27.64.24.17-.02.37-.29.55-.31.96-.1,1.67-.97,1.67-2.32,0-1.1-.92-2.35-.82-2.57,0,0,1.8,1.1,1.8,2.62,0,2.45-2.48,3.32-2.48,3.32l.56,1.2Z"/><path class="cls-7" d="m290.9,170.99c-.49.05-.8.19-.8.34s.31.21.8.16c.13-.02.28-.1.28-.28s-.15-.23-.28-.22Z"/><path class="cls-7" d="m292.5,171.07c0,.17.15.23.28.22.49-.05.8-.18.8-.33s-.31-.22-.8-.17c-.13.01-.28.11-.28.28Z"/><path class="cls-7" d="m306.96,160.65l-.84.7.09.19s-.15.07-.22.21c-.07.15.04.33.04.33,0,0-.8.02-.93.11-.11.08.05.63-.03,1.1-.1.67-.36.64-.37.77-.01.13.1.31.1.31,0,0-.15.06-.18.13-.05.11.04.28-.03.41-.08.17-.17.35-.26.55,0-6.33.02-12.66.02-12.66,0-.81-1.27-2.42-2.91-3.32-1.11.78-2.32,2.39-2.76,2.55,0,.4.15.77.15,1.19v.79c-1.03.16-1.49.69-2.35,1.27-.5.33-1.21.63-1.35.68-.34-.2-.61-.44-.81-.74-.47-.71-.67-1.62-.67-2.57,0-.4.45-.9.45-1.22,0-.49-.05-.78-.05-.78.16,0,.43.26.43.26,0,0-.01-.81-.26-.93,0,0,.1-.11.48-.17-.11-.26-.63-.53-.63-.53.03-.05.07-.1.14-.13.13-.09.31-.16.45-.2-.15-.02-.32-.04-.51-.09-.43-.09-.94-.25-1.42-.43-.87-.33-1.53-.28-1.9-.25-.26.03-.66.08-.88.25-.21.16-.19.34-.27.41-.17.17-.47.19-.61.21-.27.03-.46.14-.6.27v-.76l.21-.02.34-.04c.22-.02.39.1.45.28.09-.13.16-.35.16-.59s-.06-.44-.16-.56c-.06.2-.24.36-.45.38l-.34.04-.21.02v-.55c0-.22.14-.41.33-.49-.12-.08-.33-.12-.57-.1-.24.02-.45.11-.57.22.19.04.33.2.33.42v.55l-.21.02-.34.04c-.22.02-.39-.1-.45-.28-.09.13-.16.35-.16.59s.06.44.16.56c.06-.2.23-.36.45-.38l.34-.04.21-.02v2.65c0,.21-.13.4-.31.48.26,0,.49.34.55.52.06-.2.29-.57.55-.64-.18-.04-.32-.2-.32-.41v-.96c.79.2,1.57.54,1.57,2.26,0,1.11-.13,2.26-.69,3.21-.2.34-.47.64-.81.91-.15-.03-.85-.17-1.35-.4-.87-.39-1.32-.83-2.35-.77v-.79c0-.42.15-.82.15-1.22-.44-.07-1.65-1.43-2.76-1.97-1.64,1.24-2.91,3.12-2.91,3.93,0,0,.01,3.8.02,8.45-.16-.31-.33-.53-.33-.53,0,0-.22.47-.24.81-.14-.33-.99-.71-.99-.71,0,0-.13.75.09,1.15.19.36.31.43.31.43-.37-.2-.92-.17-.92-.17,0,0,.2.78.67,1.09.26.18.6.2.86.19-.05.05-.11.1-.16.12-.09.04-.19.05-.27.12-.13.11-.21.27-.13.44.08.17.29.23.47.13.18-.1.23-.29.21-.41-.02-.11.01-.17.11-.3l.29.61c0,.17,0,.34,0,.5-.64-.19-1.33-.05-1.33-.05,0,0,.24.42.48.5-.16-.04-.58.16-.58.16,0,0,.44.68,1.04.84.13.03.26.04.39.03,0,3.88,0,7.68-.02,9.91,0,.35-.21.86-.21.86.6-.31,1.7-1.94,1.93-2.54v.28c.72-.41,1.28-1.22,1.63-1.83.19-.03.36-.08.48-.14-.02.02-.04.04-.05.05-.08.06-.18.08-.25.16-.11.13-.17.3-.06.45.07.1.18.12.3.11-.17.15-.32.29-.37.38-.13.23-.22.51-.22.73,0,.24.25.55.25.55.03-.12.08-.16.08-.16,0,0,.67.77.77.86.08.08.42.1.54-.03.18-.18.35-.33.51-.51l.06.13-.21.98,1.2.53.29-1.37-.85-.38-.15-.32s0,0,0-.01c.14-.22.15-.45.31-.69.53-.79,1.59-2.31,1.83-2.66.02.09.03.16.05.25.22-.47,1.11-1.33,1.45-1.65-.13-.04-.26-.09-.39-.13-.25.31-.71.87-.89,1.01,0,0-.11-.45-.17-.61,0,0-.3.27-.47.29,0,0-.05-.31-.09-.51-.21.16-.56.17-.56.17.22-.13.47-.66.59-.93-.09-.04-.18-.07-.26-.11-.17.36-.59,1.22-.78,1.42,0,0,.16,0,.35-.02-.11.17-.98,1.51-1.25,2.01-.2.37-.36.34-.61.33l-.16-.33c.09,0,.13.02.19.08.07.08.25.15.43.04.18-.1.26-.32.18-.49-.08-.17-.24-.19-.4-.14-.1.03-.16.11-.25.17-.06.04-.17.06-.27.08l-.05-.09c.19-.14.63-.49.85-.92.28-.56.18-1.26.18-1.26,0,0-.52.25-.59.34.04-.21,0-.44-.06-.64.23-.76.42-1.47.52-1.89-.04-.1-.06-.22-.06-.36v-.44c-.12.53-.35,1.45-.64,2.29-.08-.15-.15-.24-.15-.24,0,0-.43.43-.64.94v-.65c.07-.11.09-.24.04-.36-.01-.02-.03-.04-.04-.05v-12.85l.64.53.78-.82v-.11c0-.15-.07-.3-.15-.42l-.52.54v-2.09c.13-.21.22-.37.28-.49.14.23.59.93,1.12,1.33.09-.37.66-.76.66-.76,0,0,.2.54.52.64.11-.21.77-.71.77-.71,0,0-.57.15-.79.38-.2-.02-.25-.8-.25-.8,0,0-.83.5-.97.8-.16-.03-.41-.63-.5-.87.14-.03.35-.07.62-.1.24-.03.54.05.86.17.35.13.72.3,1.04.41.42.15,1.05.12,1.23.1-.21.17-.44.33-.69.49,0,0,.99-.12,1.69-.54.25-.19.51-.38.73-.59-.09.28-.24.61-.48.9,1.03-.2,1.54-.84,1.68-1.05.07.17.19.44.38.66.19-.26.32-.56.38-.74.14.18.65.71,1.68.7-.23-.25-.38-.55-.48-.8.22.17.48.3.73.43.7.27,1.7.18,1.7.18-.25-.1-.49-.21-.7-.34.18-.02.82-.13,1.24-.37.33-.18.69-.43,1.04-.63.32-.19.62-.33.86-.36.27-.03.48-.03.62-.03-.09.27-.34.92-.5.98-.15-.28-.98-.59-.98-.59,0,0-.05.78-.25.85-.23-.19-.79-.22-.79-.22,0,0,.66.36.77.55.31-.17.52-.75.52-.75,0,0,.58.28.66.62.53-.52.98-1.31,1.12-1.57.07.11.16.26.28.43v2.09l-.52-.43c-.09.15-.15.3-.15.46v.11l.79.65.64-.67v14.78c-.64-.49-1.21-2.66-1.43-3.57v.45c0,.14-.02.26-.06.37.23.84.85,3.04,1.44,4,.05.19.16.3.16.3,0,0-.35.07-.45.26-.06.13-.04.29.04.42-.16-.07-.31-.11-.42-.1-.39.04-.57.26-.82-.16-.27-.44-1.13-1.6-1.25-1.75.18-.02.35-.06.35-.06-.19-.16-.61-.93-.78-1.25-.09.06-.17.11-.26.17.12.25.37.72.6.81,0,0-.35.07-.56-.05-.04.21-.09.53-.09.53-.17.01-.47-.19-.47-.19-.06.17-.17.64-.17.64-.18-.1-.65-.57-.89-.82-.13.07-.26.14-.38.21.34.25,1.23.92,1.45,1.35.02-.09.03-.17.05-.26.24.29,1.3,1.59,1.83,2.27.16.2.17.44.31.63.16.22.32.36.49.49-.05,0-.1-.02-.13-.01-.11.02-.18.09-.2.14-.04.07-.04.16,0,.23,0,0-.27-.06-.36,0-.09.05,0,1.3,0,1.3,0,0,1.06-.78,1.04-.88-.02-.1-.24-.24-.24-.24.09-.02.15-.08.19-.15.01-.03.02-.08,0-.14.02.02.04.03.06.04.12.1.46,0,.54-.09.1-.12.77-1.03.77-1.03,0,0,.05.04.08.15,0,0,.25-.36.25-.6,0-.22-.09-.48-.22-.68-.05-.08-.19-.19-.37-.3.19,0,.37-.12.44-.27.09-.19-.1-.48-.1-.48,0,0,.03,0,.05,0,.35.55.92,1.26,1.66,1.53v-.28c.23.55,1.33,1.94,1.93,2.13,0,0-.21-.47-.21-.81-.02-2.14-.02-5.7-.02-9.4.27-.56.56-1.15.78-1.61.06-.13.26-.19.31-.3.03-.07-.02-.21-.02-.21,0,0,.22-.05.31-.14.1-.09-.1-.25.37-.77.34-.37.88-.63.87-.76,0-.15-.54-.7-.54-.7,0,0,.22-.04.29-.19.07-.14.02-.3.02-.3l.22-.06v-1.05Zm-28.79,4.07c-.18-.29-.16-.82-.16-.82,0,0,.4.08.57.37.18.29.16.82.16.82,0,0-.4-.08-.57-.36Zm0,1.06c-.27-.18-.53-.64-.53-.64,0,0,.46-.02.73.16.27.18.37.6.37.6,0,0-.31.06-.58-.11Zm.49,1.05c-.1.05-.21.02-.26-.07h0c-.04-.09,0-.21.1-.27.1-.05.21-.02.26.07.04.09,0,.21-.09.27Zm6.53,11.35l.53.23-.18.85-.74-.33.13-.6.05-.25.22.1Zm-.85-3.17c.1-.05.21-.02.26.07h0c.04.09,0,.21-.1.27-.1.05-.21.02-.26-.07-.05-.09,0-.21.1-.27Zm-4.46-19.62c0-.16.07-.37.18-.59l.35.6v1.15l-.53.55v-1.7Zm0,2.4l.53-.55v1.79l-.53-.44v-.8Zm0,1.49l.64.53.65-.67v7.38c-.08-.28-.17-.48-.17-.48,0,0-.38.31-.46.56,0-.45-.32-.82-.32-.82,0,0,0,0,0,0,0-.02,0-.03-.01-.05-.07-.14-.19-.16-.32-.15v-6.32Zm1.84-1.85l.35-.36v1.79l-.35-.29-.26-.22v-.64l.26-.27Zm-.26-.42v-2.22l.61.87v.71l-.61.64Zm.08,2.09l.65.54.65-.67v10.24c-.12.1-.29.24-.35.35.08-.24-.25-.88-.25-.88,0,0-.23.19-.45.44.02-.08.02-.17-.01-.24-.05-.11-.14-.14-.23-.15v-9.62Zm1.37-1.55v.64l-.27.28-.35.36v-1.79l.61.51Zm-.61-1.2v-.64l.61-.66v1.8l-.61-.5Zm.44,15.76c-.04-.09,0-.21.1-.27.1-.05.21-.02.26.07.04.09,0,.21-.1.27-.1.05-.21.02-.26-.07Zm.09.26v.64l-.39-.81c.09,0,.13.01.19.08.04.05.11.08.2.09Zm-.24-.52c-.06.04-.17.06-.27.08l-.07-.15c.16-.11.41-.31.59-.62v.52c-.1.03-.16.12-.24.17Zm-2.7-1.81c.1.1.27.13.41.05.18-.1.23-.29.21-.41-.02-.09,0-.15.07-.24l.59,1.24v.09c-.12-.08-.26-.15-.4-.19-.33-.09-.68-.02-.88.04v-.58Zm.44-.36c.04.09,0,.21-.09.27-.1.06-.21.03-.26-.07-.04-.09,0-.21.1-.27.1-.06.21-.02.26.07Zm-.36-3.59c-.1.05-.21.02-.26-.07,0,0,0,0,0,0,0,0,0,0,0,0h0s0,0,0,0c-.04-.09,0-.21.1-.26.1-.05.21-.02.26.07.04.09,0,.21-.1.27Zm.23.13s.19.23.21.57c.02.34-.14.78-.14.78,0,0-.22-.35-.24-.68-.02-.34.17-.66.17-.66Zm1.42,2.73h0s0,0,0,0c.04.09,0,.21-.1.27-.1.05-.21.02-.26-.07h0s0,0,0,0h0s0,0,0,0c-.04-.09,0-.21.1-.27.1-.05.21-.02.26.07h0s0,0,0,0Zm.62,1.07s-.15.2-.21.38c-.07.18-.05.44-.05.44,0,0-.4-.34-.36-.76.04-.42.48-.93.48-.93,0,0,.15.25.18.48.03.17-.04.39-.04.39Zm.5-.39s.16.6.05,1.06c-.11.47-.49.81-.49.81,0,0-.2-.47-.09-.93.11-.47.53-.94.53-.94Zm-1.2-.26s.04,0,.05-.02c-.02.03-.04.05-.05.08v-.06Zm-1.02-1.89c.05-.44.36-.9.36-.9,0,0,.29.46.25.9-.05.44-.43.87-.43.87,0,0-.22-.43-.18-.87Zm1.14,4.02s-.36-.2-.63-.24c-.27-.03-.49.06-.49.06,0,0-.23-.15-.36-.31-.13-.15-.17-.31-.17-.31,0,0,.46-.12.86.06.4.18.79.72.79.72Zm-1.77-.6c.14.19.34.42.49.46-.13,0-.33.1-.49.2v-.66Zm1,.56c.42.01.79.3.79.3,0,0-.56.26-.98.24-.41-.01-.73-.29-.73-.29,0,0,.5-.27.92-.26Zm.89.48l.15.31c-.09.1-.19.21-.27.25-.04.02-.08.03-.12.04v-.53c.09-.03.17-.05.24-.08Zm-.37,1.04c-.04-.09,0-.21.1-.27.1-.06.21-.03.26.07.04.09,0,.21-.1.27-.1.05-.21.02-.26-.07Zm.13.25c.06,0,.13,0,.19-.04.18-.1.24-.29.21-.41-.02-.11.01-.17.1-.28l.75,1.57c-.15-.08-.32-.16-.52-.21-.24-.06-.5-.09-.74-.11v-.52Zm.18-2.01s-.02,0-.02,0c-.06,0-.13-.07-.2-.2-.11-.2-.23-.51-.33-.72,0,0,0,0,0-.01-.18-.37-.53-.92-.43-.98.11-.06.26.23.43.61.04.08.09.18.15.29.21.4.5.92.41,1,0,0,0,0,0,0Zm-.69-1.99c.05,0,.09.03.13.07,0,0,0,0,0,0v.22l-.14-.29Zm.09-.35c-.05.03-.13.06-.22.07l-.13-.27c.11-.11.28-.31.4-.57v.73s-.03.03-.05.04Zm.13-11.87l-.61-.5v-.83l.61-.71v2.04Zm-.26.48l.26.22v.64l-.26.27-.35.36v-1.79l.35.29Zm-1.88,6.4c.05.1.27.3.29.68.02.38-.18.86-.18.86,0,0-.22-.41-.24-.79-.02-.38.14-.75.14-.75Zm.25,2.61s0-.01,0-.02c0-.03,0-.06.03-.07.11-.06.27.26.42.56,0,0,.01.02.01.03.14.29.45.72.31.79,0,0,0,0-.01,0-.07.03-.14-.05-.22-.17-.09-.14-.18-.34-.27-.53-.13-.27-.25-.47-.27-.59Zm-1.03.92s.49-.07.84.07c.35.13.61.45.61.45,0,0-.52.05-.87-.09-.35-.14-.58-.43-.58-.43Zm.59,1.15c-.31-.11-.47-.42-.47-.42,0,0,.55-.05.86.06.31.11.55.39.55.39,0,0-.63.08-.93-.03Zm1.3.08l.25.52c-.08.09-.17.18-.24.21-.09.05-.19.05-.27.12-.02.02-.04.05-.07.07v-.82c.13-.04.24-.08.32-.11Zm.96,7.3c0,.48-.87,1.67-1.28,1.97v-6.01c.2.13.5.27.85.25.15,0,.29-.03.43-.06v1.63c-.26,0-.44,0-.44,0,0,0,.21.4.44.67v.29c-.19.07-.4.16-.4.16,0,0,.16.12.4.27v.83Zm.37.51v-1.15c.25.12.54.21.82.23-.39.44-.82.92-.82.92Zm.59-1.12c-.45-.06-.83-.48-.83-.48,0,0,.73-.1,1.17-.04.44.06.61.29.61.29,0,0-.5.29-.95.22Zm-.2-.71c-.42-.14-.75-.62-.75-.62,0,0,.63-.09,1.14.06.51.15.88.56.88.56,0,0-.68.19-1.26,0Zm1.69,1.16c-.07.04-.13.08-.2.12.04-.09.05-.18.03-.25-.03-.08-.03-.13.01-.21l.16.34Zm-.68.15c-.06-.08-.03-.21.05-.27.09-.07.21-.06.27.03.06.08.04.21-.05.28-.09.07-.21.06-.27-.03Zm.12,1.7c-.06-.07-.06-.18,0-.24l.52-.5s.06-.04.09-.05c.05,0,.11,0,.15.05.06.07.06.17,0,.23l-.52.51c-.07.07-.17.07-.24,0Zm.13-.63s-.02-.07,0-.1l.21-.21s.03-.02.05-.02c.02,0,.04,0,.05.02.03.03.02.07,0,.1l-.21.21s-.07.03-.1,0Zm.41.95c-.07.07-.17.07-.24,0-.06-.07-.06-.18,0-.24l.52-.51s.05-.04.09-.04c.05-.01.11,0,.15.04.06.07.06.17,0,.24l-.52.51Zm.85-.2l-.52.51c-.07.06-.17.06-.23,0-.06-.07-.06-.17,0-.24l.52-.51s.06-.04.09-.04c.05,0,.11,0,.15.05.06.07.06.17,0,.24Zm.32-1.99c.54-.9,1.42-2.35,1.5-2.49.06-.02.11-.04.15-.07,0,0,0,.43.13.56l.47-.37s.03.15.07.36c-.2.3-1.36,2.01-1.93,2.84-.14.21-.26.71-.26.71,0,0-.21-.08-.21-.26s.02-.39.02-.39c0,0-.16.2-.43.22,0-.22.42-.5.43-.8-.32.27-.59.18-.96.33-.4.17-.51.35-.63.35-.07,0-.14-.11-.11-.19.05-.14.54-.56.89-.66.08-.03.74.06.87-.15Zm-.13-2.67s-.04.66-.24,1.02c-.2.37-.56.44-.56.44,0,0-.1-.34.1-.71.2-.37.71-.76.71-.76Zm-.83-.83s.19.38.24.71c.05.33,0,.45,0,.45,0,0-.2.21-.29.34-.11.16-.13.43-.13.43,0,0-.39-.55-.33-.98.06-.44.51-.94.51-.94Zm-.26,2.5c.05.1.09.2.13.29,0,0,0,.02.01.03,0,0,0,.02.01.03.04.1.08.18.11.25.04.11.05.18.03.19-.03.01-.09-.05-.17-.17-.02-.04-.05-.08-.08-.13-.04-.07-.09-.15-.14-.25-.13-.23-.27-.5-.41-.8-.06-.13-.13-.26-.19-.39-.03-.07-.06-.13-.1-.2-.25-.51-.45-.97-.57-1.28-.04-.12-.08-.21-.09-.29,0-.04-.01-.08,0-.1,0-.01,0-.03.01-.04.02,0,.04,0,.06.03.04.04.09.13.16.25.14.26.32.67.53,1.12.05.1.1.21.15.31.05.11.1.22.16.33.14.29.28.57.4.81Zm.2-16.1l-.35-.29-.26-.22v-.6c.21-.15.42-.41.61-.68v1.79Zm-.61-1.8v-1.95c.09.15.52.79.91.94-.14.22-.51.75-.91,1.01Zm1.18-1.38c-.37-.09-.84-.65-1.07-.95v-.19c0-.18.1-.32.18-.4l-.22-.06c-.09.11-.18.26-.18.45v.11l-.07.08-.04.05-.56.66-.66-.93v-.24c0-.16.13-.36.23-.5l-.22-.06c-.11.16-.23.36-.23.54v.2c-.15.18-.76.86-.76.86,0,0-.3-.62-.38-.79.46-.69,1.21-1.48,1.91-2.07h0s1.52,1.24,2.04,1.37l.02.47v1.39Zm4.65-6.17c.19-.02.81-.1.81-.1.08.21.46.53.46.91,0,0-.39-.66-1.46-.54-.27.03-.45.14-.45.14,0,0,.18-.36.63-.41Zm1.61.41c0-.21.17-.4.38-.42.21-.02.38.13.38.34s-.17.4-.38.42c-.21.02-.38-.13-.38-.34Zm-.15-.03c-.22-.08-.45-.2-.45-.41,0-.09.06-.16.26-.18.18-.02.45.1.72.17-.28.03-.5.22-.53.42Zm-1.83,1.92c-.08.06-.15.13-.21.21-.06.07-.08.14-.11.21-.04-.06-.06-.12-.11-.19-.06-.07-.13-.12-.22-.17.12-.12.2-.26.2-.44v-2.65s0-.02,0-.02v-.06s0-.02,0-.03h-.11s-.14.03-.14.03h-.07s-.34.04-.34.04c-.18.02-.33.12-.44.25-.03-.09-.05-.2-.05-.32s.03-.23.06-.33c.11.11.26.17.44.16l.34-.04.16-.02h.05s.01,0,.02-.01h.09v-.1s0-.02,0-.02v-.55c0-.18-.08-.33-.2-.42.09-.04.2-.07.33-.09.13-.01.23,0,.33.02-.12.12-.2.28-.2.46v.55s0,.02,0,.02v.09h.09s.02,0,.02,0l.21-.02.34-.04c.18-.02.33-.12.44-.25.03.09.05.2.05.32s-.03.24-.06.33c-.11-.11-.26-.17-.44-.16l-.34.04-.21.02s-.02,0-.02,0h-.09v.98c-.23.32-.25.7-.25.7,0,0,.09-.13.25-.25v1.34c0,.17.09.3.2.4Zm-.09-1.65v-.17c.08-.05.18-.08.29-.1.69-.07,1.22.25,1.22.39,0,.06-.07.08-.08.08-.43.05-1.06-.12-1.43-.11v-.09Zm.69.28s.34.16.9.03c0,0-.23.27-.28.4-.23-.06-.62-.43-.62-.43Zm3.87,4.27v-1.95l-.22.02v1.95c0,.37.09.54.09.54.13.4.4,1.01.56,1.25-.77-.33-1.15-.81-1.15-1.01v-2.69l-.22.02v2.72l.04.18c-.09.15-.21.33-.3.39-.08-.05-.2-.2-.29-.33l.04-.19v-2.72l-.22.02v2.69c0,.19-.39.75-1.15,1.25.17-.27.43-.94.56-1.37,0,0,.09-.18.09-.56v-1.96l-.22.02v1.95c0,.52-.62,1.14-1.45,1.67.19-.19.28-.43.39-.63.31-.58.71-1.32.71-3.3,0-.74-.11-1.24-.3-1.57-.06-.11-.14-.41.31-.46.23-.02.75.33.75.33,0,0-.02-.32-.29-.48-.04-.02-.12-.11-.12-.2,0-.01.02-.03.02-.05.08.02.16.04.26.03.3-.03.55-.25.55-.48,0-.15-.12-.27-.28-.32.03,0,.05,0,.08,0,.28-.03.39-.11.68-.14.35-.04,1.09.55,1.33.5-.28-.15-.73-.77-1.42-.7-.24.03-.45.1-.67.13-.29.03-.57-.2-.87-.17-.21.02-.44.06-.47,0-.06-.09,0-.15.05-.23.11-.16.4-.23.69-.27.09-.01.17-.02.25-.03.08,0,.16-.01.22-.02.85-.09,1.45.24,2.25.51.21.07.41.13.58.17-.11.11-.19.21-.22.3,0,0,.36.03.52.31,0,0-.34.08-.4.28.19,0,.38.22.38.45l-.49-.1s.12.54.12,1.13c0,.3-.44.71-.44,1.22,0,1.62.41,2.2.7,2.66.11.18.2.4.39.55-.83-.36-1.45-.85-1.45-1.36Zm6.3,22.85l-.73.6v-.9s.2-.04.41.04c.22.09.31.25.31.25Zm-.25-.39c-.13-.05-.2-.15-.16-.23.02-.04.06-.06.11-.06.05,0,.12,0,.18.02.13.05.2.15.16.23-.04.07-.17.09-.29.04Zm.92-.42c-.06.08-.17.1-.23.05l-.51-.4c-.07-.05-.07-.16,0-.24.03-.04.07-.06.11-.07.01,0,.03,0,.04,0,.03,0,.06,0,.09.02l.52.4c.07.05.07.16,0,.23Zm.33-.37c-.06.08-.17.1-.23.05l-.52-.4c-.07-.05-.07-.16,0-.24.03-.04.07-.06.11-.07.01,0,.03,0,.04,0,.03,0,.06,0,.09.03l.52.4c.07.05.07.16,0,.24Zm.3-.38c-.06.08-.17.1-.24.05l-.52-.4c-.07-.05-.07-.16,0-.23.03-.04.07-.07.11-.08.02,0,.03,0,.04,0,.03,0,.07.01.09.03l.52.4c.07.05.07.16,0,.24Zm-.44-.84s.03-.03.05-.03c.02,0,.04,0,.05.01l.21.16s.03.07,0,.1c-.03.03-.07.04-.1.02l-.21-.17s-.03-.06,0-.1Zm.5-.23c.03.07-.04.2-.11.22-.12.02-.24-.14-.64-.22-.37-.07-.64.07-.96-.12.02.3.43.49.43.71-.27.03-.43-.14-.43-.14,0,0,.02.21.02.38s-.21.3-.21.3c0,0-.12-.48-.26-.65-.57-.71-1.73-2.18-1.93-2.43.04-.22.07-.38.07-.38l.47.28c.13-.17.13-.59.13-.59.04.02.09.03.15.04.08.12.96,1.39,1.5,2.17.13.19.78-.04.87-.03.35.03.84.35.89.47Zm4.1-10.66s.21-.16.27-.28c.06-.13.18-.24.19-.61.02-.39-.06-.83,0-.87.01,0,.07-.02.14-.03.22-.03.63-.05.63-.05,0,0-.44.16-.49.2-.06.05-.06.8-.27,1.24-.18.37-.29.56-.29.56l-.18-.16Zm-.99-11.21v1.7l-.53-.44v-1.15l.35-.67c.11.2.18.39.18.56Zm-.68,15.74c-.17-.07-.26-.23-.2-.35.04-.08.12-.12.23-.13.06,0,.13,0,.19.03.17.07.27.23.21.35-.06.12-.25.16-.42.09Zm.12.4c-.05.09-.2.12-.34.06-.14-.06-.22-.18-.17-.27.02-.05.07-.08.13-.09.06-.01.14,0,.21.02.14.06.22.18.17.28Zm.16-.97c-.14-.06-.22-.18-.18-.28.02-.05.07-.08.13-.09.06-.01.14,0,.21.02.14.06.22.18.18.28-.04.1-.2.12-.34.07Zm-.25-.34c-.06.13-.01.29-.01.29,0,0-.23.04-.3.2-.08.17-.04.39-.04.39,0,0-.14.04-.21.18-.07.15.05.22.02.29-.03.06-.06.13-.1.2v-12.35l.65.53.64-.67v9.81c-.15.3-.29.6-.41.84-.05.1-.18.15-.24.28Zm-.45-12.48l.35-.36v1.79l-.35-.29-.26-.22v-.64l.26-.27Zm-.26-.42v-2.04l.61.58v.83l-.61.63Zm.83,1.83v-1.79l.53.44v.8l-.53.55Zm-3.88-2.71v-1.39l.02-.48c.51-.23,2.04-1.79,2.04-1.79h0c.7.43,1.45,1.07,1.91,1.66-.08.19-.38.87-.38.87,0,0-.6-.56-.76-.7v-.2c0-.18-.12-.37-.23-.5l-.22.1c.1.11.23.28.23.45v.24l-.66,1.07-.56-.54-.04-.04-.07-.07v-.11c0-.19-.09-.32-.18-.41l-.22.11c.08.06.18.18.18.36v.19c-.23.35-.7,1.01-1.07,1.18Zm2.01,1.12v1.79l-.35-.29-.27-.22v-.64l.61-.64Zm-.61-.06v-1.8l.61.53v.64l-.61.63Zm.07,16.88v-14.78l.65.54.65-.67v13.07c-.32.67-.64,1.33-.86,1.79-.07.15-.26.26-.45.42.01-.21.02-.36.02-.36Zm1.11-15.42l-.35.36v-1.79l.35.29.26.22v.64l-.26.28Zm-.35-2.12v-.71l.61-1v2.22l-.61-.51Zm-1.96-.08c.4-.24.82-.97.91-1.13v1.95c-.4-.17-.77-.63-.91-.81Zm.65,2.38l-.35.37v-1.79c.19.23.4.45.61.55v.6l-.26.28Zm.57,17.42c-.07.14-.26.21-.43.14-.17-.07-.25-.24-.18-.38.04-.09.13-.15.24-.16.06,0,.13,0,.19.03.17.07.25.24.18.38Zm1.27.28s-.49-.45-.9-.82c.14-.06.29-.17.39-.39.25-.51.04-.86.16-1.11.1-.21.22-.46.35-.73v3.04Zm-.49-2.28c-.1.21.05.63-.12.99-.1.2-.25.32-.4.38-.09.03-.18.04-.27.02-.02,0-.04,0-.06,0-.02,0-.03-.03-.05-.04-.19-.12-.28-.39-.12-.72.05-.1.11-.18.19-.25.2-.2.45-.34.53-.49.17-.36.51-1.07.8-1.66.15-.32.29-.6.37-.76.05-.1.08-.17.08-.17,0,0,.04-.1.13-.12.03,0,.07,0,.11,0,.16.07.07.23.07.23,0,0-.17.36-.4.82-.12.24-.24.5-.37.76-.19.4-.37.78-.49,1.01Zm2.14,3.39c-.42-.21-1.28-1.22-1.28-1.7v-3.21c.2-.42.41-.85.61-1.26.03-.07.17-.03.24-.18.07-.15,0-.26,0-.26,0,0,.21-.11.29-.29.08-.16-.04-.34-.04-.34,0,0,.11-.05.18-.14v7.39Zm1.42-10.6c-.05.1-.16.16-.52.92-.15.31-.22.45-.36.75-.01.03-.02.05-.04.08-.18.37-.43.9-.43.9,0,0-.02.05-.06.08-.04.03-.09.06-.17.03-.16-.07-.08-.24-.08-.24,0,0,.12-.24.25-.51.06-.13.13-.26.19-.38.15-.31.22-.46.35-.72.02-.04.03-.07.05-.11.37-.76.34-.88.39-.98.03-.06.09-.12.16-.13.05-.01.1,0,.16.02.16.07.17.2.13.3Zm.08-.41l-.13-.05-.12-.05s.1-.16.3-.58c.25-.51.22-1.14.28-1.2.06-.07.53-.21.53-.21,0,0,.2.4.18.49-.01.09-.54.49-.78,1-.2.42-.26.59-.26.59Zm1.46-1.47c0,.06-.4.31-.71.58-.28.26-.3.41-.36.54-.06.12-.04.37-.04.37h-.24s.08-.22.25-.59c.21-.44.82-.94.82-1.01,0-.06-.17-.47-.17-.47,0,0,.45.51.46.57Zm-.14-.96c-.06.13-.23.19-.37.14-.14-.06-.21-.21-.14-.35.04-.08.12-.14.21-.16.05,0,.11,0,.16.02.14.06.21.21.14.35Zm-.07-.49l-.25-.1.49-.4v.6s-.24-.1-.24-.1Z"/><path class="cls-7" d="m293.58,172.93c-.13.07-.25.14-.36.21.4.91,2.2,4.88,3.98,6.06-.46.18-.99.44-1.54.74-.67-.72-1.36-1.71-1.92-2.59-.61-.96-1.1-2.69-1.1-2.69-.28.72.31,4.1,1.53,6.15-1,.63-1.89,1.29-2.32,1.8-.42-.42-1.32-.89-2.32-1.31,1.21-2.31,1.81-5.82,1.53-6.48,0,0-.5,1.84-1.1,2.92-.56,1-1.25,2.14-1.93,2.99-.55-.18-1.08-.32-1.54-.41,1.78-1.56,3.58-5.92,3.98-6.9-.11-.04-.23-.09-.36-.13-.38.9-2.71,6.16-4.79,7.22,0,0,.99.32,2.21.83.18.07.36.15.55.23.15-.2.31-.42.47-.66.73-1.05,1.44-2.26,1.44-2.26.05.29-.34,1.24-.99,2.43-.13.23-.26.48-.41.73.17.08.33.16.49.24,1.21.6,2.34,1.32,2.76,2.05.42-.81,1.56-1.77,2.76-2.63.16-.12.33-.23.49-.34-.15-.22-.28-.44-.41-.64-.65-1.05-1.03-1.92-.99-2.22,0,0,.71,1.06,1.44,1.96.16.2.32.39.48.56.18-.12.37-.24.55-.35,1.22-.76,2.21-1.29,2.21-1.29-2.08-.61-4.41-5.38-4.79-6.2Z"/><polygon class="cls-7" points="284.8 157.91 284.8 157.93 284.8 157.91 284.8 157.91"/><polygon class="cls-7" points="298.88 156.43 298.87 156.43 298.87 156.44 298.88 156.43"/><path class="cls-4" d="m306.48,162.83c0,.07-.61.57-.82,1.01-.18.37-.25.57-.25.57h.24s-.01-.23.04-.36c.06-.13.08-.29.36-.54.3-.27.71-.52.71-.58,0-.06-.46-.57-.46-.57,0,0,.17.4.17.47Z"/><path class="cls-4" d="m299.21,176.72c-.06-.03-.13-.03-.18-.02-.05,0-.1.03-.11.06-.04.08.04.18.16.23.13.05.26.03.29-.04.03-.07-.04-.18-.16-.23Z"/><path class="cls-4" d="m306.34,162.81c.01-.09-.18-.49-.18-.49,0,0-.46.13-.53.21-.06.07-.04.69-.28,1.2-.2.42-.3.58-.3.58l.12.05.13.05s.06-.17.26-.59c.25-.51.77-.92.78-1Z"/><path class="cls-4" d="m300.69,173.65c-.06-.03-.13-.04-.19-.03-.1.01-.2.07-.24.16-.07.14,0,.31.18.38.17.07.37,0,.43-.14.07-.14-.01-.31-.18-.38Z"/><path class="cls-4" d="m306.32,161.61c-.09.02-.17.07-.21.16-.06.14,0,.29.14.35.14.06.31,0,.37-.14.07-.13,0-.29-.14-.35-.05-.02-.11-.02-.16-.02Z"/><polygon class="cls-4" points="306.31 161.38 306.56 161.48 306.81 161.58 306.8 160.98 306.31 161.38"/><path class="cls-4" d="m299.02,177.13c-.22-.09-.41-.04-.41-.04v.9l.73-.6s-.1-.16-.31-.25Z"/><path class="cls-4" d="m305.26,163.68c.21-.44.2-1.19.27-1.24.05-.04.49-.2.49-.2,0,0-.4.02-.63.05-.07,0-.13.02-.14.03-.05.04.02.48,0,.87-.02.37-.13.48-.19.61-.06.12-.27.28-.27.28l.18.16s.11-.19.29-.56Z"/><path class="cls-4" d="m302.91,169.43s.09-.17-.07-.23c-.04-.02-.08-.01-.11,0-.09.02-.13.12-.13.12,0,0-.04.07-.08.17-.08.17-.21.44-.37.76-.28.59-.62,1.3-.8,1.66-.08.16-.33.29-.53.49-.07.07-.14.15-.19.25-.16.33-.06.6.12.72.02.01.03.03.05.04.02,0,.04,0,.06,0,.08.02.17.01.27-.02.15-.05.3-.17.4-.38.17-.35.02-.77.12-.99.11-.23.3-.61.49-1.01.13-.26.25-.52.37-.76.22-.46.4-.82.4-.82Z"/><path class="cls-4" d="m302.86,168.71c-.06,0-.11.04-.13.09-.04.09.03.22.17.27.14.06.3.03.34-.06.05-.09-.03-.22-.17-.28-.07-.03-.15-.03-.21-.02Z"/><path class="cls-4" d="m303.54,168.51c.06-.12-.03-.28-.21-.35-.06-.03-.13-.04-.19-.03-.1,0-.19.05-.23.13-.06.12.03.28.2.35.17.07.36.03.42-.09Z"/><path class="cls-4" d="m303.74,167.97c.04-.09-.04-.22-.18-.28-.07-.03-.14-.04-.21-.02-.06.01-.11.04-.13.09-.04.09.03.22.18.28.14.06.3.03.34-.07Z"/><path class="cls-4" d="m305.09,164.52c-.06-.03-.11-.03-.16-.02-.08.02-.13.07-.16.13-.05.09-.02.21-.39.98-.02.04-.04.07-.05.11-.12.25-.19.4-.35.72-.06.12-.12.25-.19.38-.13.27-.25.51-.25.51,0,0-.09.17.08.24.08.03.13,0,.17-.03.04-.04.06-.08.06-.08,0,0,.26-.53.43-.9.01-.03.02-.05.04-.08.15-.3.22-.45.36-.75.37-.76.48-.82.52-.92.05-.1.04-.23-.13-.3Z"/><path class="cls-2" d="m278.74,165.08s.02-.54-.16-.82c-.18-.29-.57-.37-.57-.37,0,0-.02.54.16.82.18.28.57.36.57.36Z"/><path class="cls-2" d="m278.37,165.3c-.27-.18-.73-.16-.73-.16,0,0,.26.46.53.64.27.18.58.11.58.11,0,0-.1-.42-.37-.6Z"/><path class="cls-2" d="m279.38,164.59c-.02-.38-.23-.58-.29-.68,0,0-.15.37-.14.75.02.38.24.79.24.79,0,0,.2-.48.18-.86Z"/><path class="cls-2" d="m279.77,167.96s-.26-.31-.61-.45c-.35-.14-.84-.07-.84-.07,0,0,.23.29.58.43.35.14.87.09.87.09Z"/><path class="cls-2" d="m279.29,168.23c-.31-.11-.86-.06-.86-.06,0,0,.17.31.47.42.31.11.93.03.93.03,0,0-.24-.28-.55-.39Z"/><path class="cls-2" d="m280.4,166.8c-.02-.34-.21-.57-.21-.57,0,0-.19.33-.17.66.02.33.24.68.24.68,0,0,.16-.44.14-.78Z"/><path class="cls-2" d="m281.12,167.5c.04-.44-.25-.9-.25-.9,0,0-.32.46-.36.9-.05.44.18.87.18.87,0,0,.38-.42.43-.87Z"/><path class="cls-2" d="m280,170.73s.04.15.17.31c.13.16.36.31.36.31,0,0,.22-.09.49-.06.27.03.63.24.63.24,0,0-.39-.54-.79-.72-.4-.18-.86-.06-.86-.06Z"/><path class="cls-2" d="m281.67,171.78s-.38-.29-.79-.3c-.41-.01-.92.26-.92.26,0,0,.32.28.73.29.41.01.98-.24.98-.24Z"/><path class="cls-2" d="m282.09,169.17s-.45.52-.48.93c-.04.41.36.76.36.76,0,0-.02-.26.05-.44.07-.18.21-.38.21-.38,0,0,.06-.22.04-.39-.03-.23-.18-.48-.18-.48Z"/><path class="cls-2" d="m282.28,171.52s.38-.35.49-.81c.11-.47-.05-1.06-.05-1.06,0,0-.42.47-.53.94-.11.47.09.93.09.93Z"/><path class="cls-2" d="m283.74,173.78c.09-.13.29-.34.29-.34,0,0,.04-.12,0-.45-.05-.33-.24-.71-.24-.71,0,0-.45.5-.51.94-.06.44.33.98.33.98,0,0,.02-.27.13-.43Z"/><path class="cls-2" d="m283.81,174.58s.36-.07.56-.44c.2-.36.24-1.02.24-1.02,0,0-.51.39-.71.76-.2.36-.1.71-.1.71Z"/><path class="cls-2" d="m282.46,174.85c-.45-.06-1.17.04-1.17.04,0,0,.39.41.83.48.45.06.95-.22.95-.22,0,0-.16-.22-.61-.29Z"/><path class="cls-2" d="m282.31,174.09c-.51-.15-1.14-.06-1.14-.06,0,0,.33.48.75.62.58.19,1.26,0,1.26,0,0,0-.37-.41-.88-.56Z"/><path class="cls-4" d="m284.5,175.35c.1-.05.14-.18.1-.27h0c-.04-.09-.16-.12-.26-.07-.1.06-.14.17-.1.27.04.09.16.12.26.07Z"/><path class="cls-4" d="m283.25,175.72c-.06-.08-.18-.09-.27-.03-.09.07-.11.19-.05.27.06.08.18.1.27.03.09-.07.11-.19.05-.28Z"/><path class="cls-4" d="m283.08,171.92c-.04-.09-.16-.12-.26-.07-.1.06-.14.18-.1.27.04.09.16.13.26.07.1-.06.14-.18.1-.27Z"/><path class="cls-4" d="m281.75,172.8c-.04-.09-.16-.13-.26-.07-.1.05-.14.17-.1.27.04.09.16.13.26.07.1-.06.14-.18.1-.27Z"/><polygon class="cls-4" points="281.62 168.96 281.62 168.96 281.62 168.96 281.62 168.96"/><path class="cls-4" d="m281.36,168.89c-.1.06-.14.17-.1.27h0c.04.09.16.12.26.07.1-.05.14-.18.1-.27h0c-.04-.09-.16-.12-.26-.07Z"/><polygon class="cls-4" points="281.26 169.16 281.26 169.15 281.26 169.15 281.26 169.16"/><path class="cls-4" d="m280.06,169.62c-.1.05-.14.17-.1.27.05.09.16.12.26.07.1-.05.14-.17.09-.27-.04-.09-.16-.13-.26-.07Z"/><path class="cls-4" d="m279.8,165.76c-.1.05-.14.17-.1.26,0,0,0,0,0,0,.04.09.16.13.26.07.1-.06.14-.18.1-.27-.04-.09-.16-.12-.26-.07Z"/><polygon class="cls-4" points="279.7 166.03 279.7 166.03 279.7 166.03 279.7 166.03"/><path class="cls-4" d="m278.5,166.49c-.1.06-.14.18-.1.27h0c.04.09.16.12.26.07.1-.05.14-.17.09-.27-.04-.09-.16-.12-.26-.07Z"/><path class="cls-4" d="m281.31,170.22c-.06-.11-.11-.21-.15-.29-.18-.38-.33-.67-.43-.61-.1.06.25.61.43.98,0,0,0,0,0,.01.1.21.22.52.33.72.07.13.14.2.2.2,0,0,.02,0,.02,0,0,0,0,0,0,0,.1-.08-.19-.6-.41-1Z"/><path class="cls-4" d="m279.88,167.64c.08.12.15.2.22.17,0,0,0,0,.01,0,.14-.07-.17-.5-.31-.79,0,0-.01-.02-.01-.03-.14-.3-.31-.62-.42-.56-.02.01-.03.04-.03.07,0,0,0,.01,0,.02.02.12.14.32.27.59.09.19.18.39.27.53Z"/><path class="cls-4" d="m282.97,173.65c-.05-.11-.1-.21-.15-.31-.21-.45-.39-.86-.53-1.12-.06-.12-.12-.2-.16-.25-.02-.02-.04-.03-.06-.03,0,0-.01.02-.01.04,0,.02,0,.06,0,.1.02.07.05.17.09.29.12.31.32.76.57,1.28.03.06.06.13.1.2.06.13.13.26.19.39.14.29.29.57.41.8.05.09.1.17.14.25.03.05.06.09.08.13.08.12.14.18.17.17.02,0,0-.08-.03-.19-.03-.07-.06-.15-.11-.25,0,0,0-.02-.01-.03,0,0,0-.02-.01-.03-.04-.09-.08-.18-.13-.29-.12-.25-.25-.53-.4-.81-.05-.11-.11-.22-.16-.33Z"/><path class="cls-6" d="m288.32,149.75s.18-.11.45-.14c1.08-.11,1.46.54,1.46.54,0-.38-.38-.7-.46-.91,0,0-.63.08-.81.1-.45.05-.63.41-.63.41Zm1.33-.24c.05.05.06.19.06.19,0,0-.26-.06-.26-.15,0-.11.13-.13.2-.05Z"/><path class="cls-7" d="m289.7,149.7s0-.14-.06-.19c-.08-.08-.2-.07-.2.05,0,.09.26.15.26.15Z"/><path class="cls-6" d="m289.16,150.27s.4.37.62.43c.05-.13.28-.4.28-.4-.57.13-.9-.03-.9-.03Z"/><path class="cls-4" d="m291.32,149.67c0-.21-.17-.36-.38-.34-.21.02-.38.21-.38.42s.17.36.38.34c.21-.02.38-.21.38-.42Zm-.55.06c0-.1.08-.18.17-.19.1-.01.17.06.17.16s-.08.18-.17.19c-.1.01-.17-.06-.17-.16Z"/><path class="cls-7" d="m291.11,149.69c0-.1-.08-.17-.17-.16-.1,0-.17.09-.17.19s.08.17.17.16c.1,0,.17-.1.17-.19Z"/><path class="cls-3" d="m328.12,97.88c-13.42,0-29.29,9.91-38.89,26.38-2.59-5.95-11.83-12.43-22.8-12.43-8.84,0-33.67,11.05-33.67,46.73,0,46.05,46.59,55.51,56.01,69.82.65.99,2.73,1.73,3.53-.62,7.51-22.18,65.79-47.24,65.79-92.37,0-25.31-16.53-37.51-29.95-37.51Zm14.33,37.36c-.7,20.36-15.96,38.37-30.06,53.42-10.62,11.33-20.58,20.99-23.17,28.71-2.13-4.31-9.49-9.38-17.57-16.06-12.35-10.2-26.4-24.15-26.17-44.88.32-28.51,15.16-37.43,23.23-37.43,1.11,0,2.14.1,3.12.26,9.02,1.41,12.9,8.73,13.58,12.17.76,3.81,5.03,6.86,6.4.61,1.07-4.88,9.39-17.56,20.75-22.89,3.19-1.5,6.63-2.42,10.21-2.42,14.94,0,20.12,15.41,19.67,28.52Z"/></g></g></g></svg>